<svg width="1435" height="328" viewBox="0 0 1435 328" fill="none" xmlns="http://www.w3.org/2000/svg">
<g clip-path="url(#clip0)">
<path d="M80.9402 236.498C66.2758 226.142 39.9775 236.526 28.6615 243.012C0.667847 214.301 62.015 210.936 96.1877 212.842C96.3733 181.491 108.817 183.711 115.016 188.74C110.322 164.958 118.925 144.016 123.813 136.518C138.538 128.592 154.37 142.501 160.446 150.446C157.224 96.3059 166.486 74.0284 171.519 69.6574C194.219 41.592 221.686 69.5711 232.581 87.0691C239.665 64.4306 287.149 75.5562 310.006 83.9491C335.54 -1.03476 366.425 38.4841 378.676 68.8665C388.203 65.9392 398.085 78.7764 401.834 85.5612C414.689 57.8525 431.096 67.4115 437.693 75.6544C465.041 52.2313 482.815 99.4031 488.283 125.917C522.702 117.277 543.035 135.412 548.895 145.56C565.643 177.413 573.331 178.413 575.081 174.931C632.44 173.007 626.656 182.284 616.594 187.164C587.779 184.663 571.167 190.286 566.464 193.41C494.257 216.33 461.422 212.299 454.031 207.418C417.363 211.987 378.703 225.506 363.956 231.694C313.096 248.474 262.926 239.931 244.198 233.562C206.317 209.564 170.607 214.811 157.487 220.434C128.887 243.143 94.539 240.606 80.9402 236.498Z" fill="white"/>
<path d="M81.9163 239.5C61.3588 251.984 28.5 250.5 26 239.5C52.7057 230.209 74.7239 225.405 81.9163 222.958L127.047 212.92C135.706 182.318 160.303 189.631 171.52 197.113C167.262 185.133 180.107 177.299 187.061 174.879C195.848 135.245 224.03 154.551 237.022 169.158C251.481 128.542 296.413 138.332 317.072 148.303C338.472 97.5422 360.247 123.23 368.46 142.419C391.169 133.585 402.661 152.788 405.568 163.493C417.784 138.718 437.304 150.119 445.537 158.916C468.646 138.348 477.78 162.691 479.464 177.433C508.85 156.146 552.133 170.085 570.102 179.716C623 176.5 626 176 617.257 193.795C607.994 188.623 578.186 195.672 564.443 199.843C542.743 212.458 491.75 217.583 468.965 218.569C417.619 240.033 358.594 237.701 335.5 233.853C268.826 247.721 241.472 242.023 236.129 237.44C204.159 220.842 171.386 223.427 158.996 226.794C104.222 248.65 84.3121 245.719 81.9163 239.5Z" fill="#F0E8E8"/>
</g>
<g clip-path="url(#clip1)">
<path d="M1088.48 132.666C1051.56 132.397 1046.6 160.056 1048.74 173.919C1020.79 157.151 1013.23 171.678 1012.95 181.037C1004.92 178.112 1000.27 180.276 998.959 181.723C972.435 161.911 960.557 181.003 957.934 193.025C943.045 191.184 941.949 207.69 943.262 216.173C932.155 209.217 922.628 212.549 919.253 215.084C891.502 203.494 878.702 218.303 875.771 227.156C872.819 230.656 852.921 236.499 843.341 238.983C837.905 243.894 848.223 245.492 854.061 245.676C869.559 256.181 942.906 264.353 977.642 267.126C988.371 266.949 994.504 264.468 996.229 263.25C1044.21 262.31 1091.29 271.244 1108.83 275.828C1135.08 294.532 1171.07 296.046 1185.79 294.466C1198.62 290.898 1212.77 290.643 1218.24 290.962C1269 298.096 1300.34 291.985 1309.66 288.038C1316.46 287.375 1380.29 292.742 1411.36 295.508C1429.48 293.24 1411.16 287.88 1399.73 285.483C1394.51 285.267 1348.71 274.344 1326.46 268.91C1318.69 267.305 1295.25 256.732 1284.51 251.646C1277.65 218.804 1254.23 217.752 1243.38 221.331C1245.04 199.419 1228.38 186.284 1219.84 182.455C1197.24 169.998 1177.69 180.197 1170.75 186.854C1163.4 173.277 1153.36 175.311 1149.27 178.026C1136.94 192.821 1128.96 190.904 1126.5 188.095C1132.86 168.912 1128.86 155.552 1126.07 151.27L1109.16 135.222C1100.79 128.175 1091.88 130.582 1088.48 132.666Z" fill="white"/>
<path d="M857.075 247.185C871.354 246.015 900.847 243.256 904.592 241.584C909.273 239.495 912.467 226.281 944.455 234.772C950.173 225.694 966.897 209.795 988.05 218.814C992.382 214.635 1003.19 207.45 1011.77 212.14C1013.89 206.887 1021.38 198.811 1034.33 208.524C1048.25 190.588 1080.21 166.059 1096.66 211.426C1101.32 210.223 1111.25 209.548 1113.73 216.471C1122.76 209.316 1142.56 201.25 1149.46 226.225C1159.03 230.166 1181.35 236.785 1194.04 231.736C1203.02 232.046 1224.98 238.602 1240.99 262.354C1250.83 265.528 1279.03 272.341 1313.14 274.209C1334.51 277.769 1377.39 286.403 1387.96 293.942C1388.65 294.433 1389.2 294.92 1389.6 295.401C1395.32 302.289 1392.26 298.86 1389.21 295.377C1367.87 294.079 1322.7 290.915 1309.56 288.442C1300.94 291.557 1278.08 297.252 1255.67 295.122L1203.33 291.32C1185.98 297.003 1143.2 302.139 1110.9 277.227C1097.02 273.021 1054.8 264.689 996.908 265.004C994.831 268.483 974.01 272.206 907.349 259.27C887.267 256.876 849.098 251.108 857.075 247.185Z" fill="#F0E8E8"/>
</g>
<defs>
<clipPath id="clip0">
<rect width="615.236" height="243.644" fill="white" transform="translate(0 34.8557) rotate(-3.24778)"/>
</clipPath>
<clipPath id="clip1">
<rect width="579.235" height="156.221" fill="white" transform="translate(859.165 101) rotate(7.04676)"/>
</clipPath>
</defs>
</svg>
