<svg width="1778" height="658" viewBox="0 0 1778 658" fill="none" xmlns="http://www.w3.org/2000/svg">
<mask id="mask0" mask-type="alpha" maskUnits="userSpaceOnUse" x="81" y="141" width="1697" height="462">
<rect x="81.6448" y="141.844" width="1696.36" height="460.181" fill="#C4C4C4"/>
</mask>
<g mask="url(#mask0)">
<ellipse cx="929.522" cy="705.19" rx="976.006" ry="556.128" fill="#6ABB71"/>
<ellipse cx="929.522" cy="815.273" rx="976.006" ry="556.128" fill="#5A9A60"/>
</g>
<g clip-path="url(#clip0)">
<path d="M60.4411 547.372L24.24 605.7L694.058 611.706L698.62 586.603L684.577 531.443L634.041 453.34L597.94 464.293L532.118 347.78L512.989 352.882L488.706 295.8L404.938 99.8537L368.022 120.457L346.665 188.583L340.146 174.127L221.678 326.969L200.046 386.166L134.552 458.609L110.959 515.963L60.4411 547.372Z" fill="#C1755E"/>
<path d="M99.2574 571.974L111.323 515.604L133.829 458.967L199.678 387.073L220.405 328.233L339.965 174.125L346.663 188.766L374.447 144.57L368.199 120.823L405.471 100.405L513.532 352.523L532.652 348.332L597.408 463.377L628.255 474.602L627.542 548.21L582.438 522.27L627.27 576.269L633.405 611.676L176.305 607.327L205.075 572.981L308.986 584.902L329.061 556.304C343.711 554.986 373.446 552.353 375.172 552.37L460.475 553.179L503.538 529.539L505.564 506.234L496.566 506.148L442.021 488.867L385.71 505.095L433.57 469.471L466.436 458.122L483.711 458.286L471.908 450.521L483.963 432.414L434.208 403.517L436.477 355.068L432.088 362.316L392.947 315.661L368.901 382.488L317.775 420.993L303.184 366.555L269.748 399.401L147.866 459.101L130.399 515.785L99.2574 571.974Z" fill="#026951"/>
<path d="M626.567 574.44L633.413 610.945L694.6 611.53L699.51 587.888L684.216 531.621L633.862 453.155L597.408 463.377L531.936 347.96L513.544 351.429L386.508 125.735L374.447 144.57L390.672 216.152L390.198 264.98L423.518 318.138L437.24 350.702L450.781 327.873L488.204 403.301L488.762 345.727L507.676 362.671L533.633 358.543L540.754 403.801L510.227 433.758L516.447 460.42L484.773 460.119L509.846 473.112L506.297 504.783L539.749 507.288L540.244 456.272L555.697 421.801L555.76 415.241L588.36 468.393L627.539 474.231L626.834 547.11L582.072 522.997L626.567 574.44Z" fill="#004E3C"/>
</g>
<g clip-path="url(#clip1)">
<path d="M921.506 221.248L909.606 195.117H978.29L967.069 221.248H921.506Z" fill="#FEB46D"/>
<path d="M899.745 198.802L918.446 138.836H976.25L988.15 198.802H899.745Z" fill="#FFD059"/>
<path d="M988.15 198.467L944.288 156.591L900.425 198.467H988.15Z" fill="#FFDC85"/>
<path d="M976.59 138.836L943.948 156.591L918.786 138.836H976.59Z" fill="#DEC689"/>
</g>
<g clip-path="url(#clip2)">
<path d="M798.094 174.63L790.738 161.464L826.59 158.467L821.877 172.642L798.094 174.63Z" fill="#FEB46D"/>
<path d="M785.752 163.824L792.889 131.603L823.061 129.081L831.898 159.967L785.752 163.824Z" fill="#FFD059"/>
<path d="M831.884 159.792L807.155 139.774L786.092 163.619L831.884 159.792Z" fill="#FFDC85"/>
<path d="M823.239 129.066L806.977 139.789L793.066 131.588L823.239 129.066Z" fill="#DEC689"/>
</g>
<g clip-path="url(#clip3)">
<path d="M1055.01 185.426L1049.07 167.474L1093.93 172.276L1084.77 188.612L1055.01 185.426Z" fill="#FEB46D"/>
<path d="M1042.38 169.199L1058.8 131.216L1096.54 135.259L1100.11 175.38L1042.38 169.199Z" fill="#FFD059"/>
<path d="M1100.13 175.161L1074.42 144.657L1042.84 169.027L1100.13 175.161Z" fill="#FFDC85"/>
<path d="M1096.76 135.282L1074.2 144.633L1059.02 131.24L1096.76 135.282Z" fill="#DEC689"/>
</g>
<g clip-path="url(#clip4)">
<path d="M1133.09 295.938L1122.85 260.658L1209.59 273.189L1190.63 304.251L1133.09 295.938Z" fill="#FEB46D"/>
<path d="M1109.72 263.528L1144.31 190.96L1217.31 201.506L1221.36 279.657L1109.72 263.528Z" fill="#FFD059"/>
<path d="M1221.42 279.233L1173.7 218.172L1110.64 263.228L1221.42 279.233Z" fill="#FFDC85"/>
<path d="M1217.74 201.568L1173.27 218.109L1144.74 191.022L1217.74 201.568Z" fill="#DEC689"/>
</g>
<g clip-path="url(#clip5)">
<path d="M702.259 312.292L683.332 281.604L768.548 270.717L758.788 305.07L702.259 312.292Z" fill="#FEB46D"/>
<path d="M671.685 287.76L685.338 210.042L757.054 200.88L781.369 273.748L671.685 287.76Z" fill="#FFD059"/>
<path d="M781.315 273.331L720.227 228.08L672.475 287.235L781.315 273.331Z" fill="#FFDC85"/>
<path d="M757.476 200.826L719.805 228.134L685.759 209.988L757.476 200.826Z" fill="#DEC689"/>
</g>
<path d="M1451.61 395.711C1496 419.232 1508.85 401.538 1509.73 389.751L1525.65 340.338L1488.84 267.072L1289.13 250.102C1295.26 267.298 1281.86 296.378 1274.38 308.769C1244.13 353.702 1261.89 361.583 1274.54 359.905C1296.51 356.397 1302.69 366.509 1303.03 372.004C1305.66 398.799 1316.37 399.066 1321.39 395.853C1348.33 375.189 1362.9 389.401 1366.81 399.092C1370.87 429.411 1386.83 435.072 1394.31 434.114L1451.61 395.711Z" fill="#0C504C"/>
<path d="M1487.77 346.866C1493.73 376.828 1507.46 380.762 1513.58 378.983L1568.69 290.77L1227.77 150.359C1229.05 174.831 1215.11 197.265 1207.98 205.423C1181.44 240.261 1203.14 248.843 1217.3 248.779C1237.34 237.445 1241.68 246.486 1241.34 252.423C1236.93 286.149 1253.42 289.894 1262.21 287.551C1295.95 271.528 1300.67 285.4 1298.81 294.339C1265.91 350.986 1293.65 358.536 1311.64 355.229C1335.98 343.392 1346.99 351.764 1349.45 357.43C1386 406.221 1409.32 374.83 1416.41 353.035C1432.31 376.133 1448.26 367.533 1454.24 360.349C1473.94 331.947 1484.8 339.526 1487.77 346.866Z" fill="#037C60"/>
<path d="M1468.9 387.733C1460.92 387.258 1442.95 401.755 1434.96 409.063C1429.81 442.327 1430.5 512.552 1431.57 546.968L1436.31 586.188L1374.38 559.89C1366.75 537.971 1400.01 402.977 1417.6 338.22C1396.39 322.796 1362.26 285.296 1347.85 268.474C1336.02 260.533 1309.58 207.233 1297.84 181.576L1305.78 178.382L1322.15 213.785L1327.96 181.238L1332.41 189.691C1329.62 203.099 1333.33 222.428 1335.54 230.416C1365.79 274.778 1407.76 309.238 1424.96 320.922C1423.67 315.705 1441.66 272.565 1450.81 251.647L1469.99 254.686L1458.89 294.477C1480.03 297.035 1508.05 278.634 1519.42 269.114L1526.34 278.619C1520.92 284.486 1501.74 293.462 1492.83 297.215C1500.78 308.764 1517.19 310.969 1524.41 310.628L1522.3 315.57L1506.74 312.611C1498.26 311.926 1487.94 305.839 1483.83 302.88C1476.43 307.906 1461.56 309.959 1455.05 310.356C1450.42 321.23 1442.56 364.875 1439.21 385.336C1442.59 381.52 1459.63 379.174 1467.73 378.478L1468.9 387.733Z" fill="#C1755E"/>
<path d="M1400.7 571.066C1395.39 547.124 1430.78 367.927 1449.14 281.323L1462.84 280.914L1458.84 294.602C1469.66 298.028 1493.83 286.261 1504.57 279.95L1508.47 289.669L1493.81 296.63C1493.74 299.533 1502.99 305.413 1507.62 307.99L1506.03 311.713C1499.88 311.738 1488.81 305.499 1484.05 302.377C1476.52 307.681 1461.32 309.946 1454.66 310.415L1439 385.831C1442.46 381.143 1459.94 378.724 1468.25 378.103L1469.28 387.698C1459.35 389.049 1442.3 402.984 1435.02 409.783C1431.55 430.292 1431.07 475.15 1431.26 495.016C1429.09 531.025 1434.13 570.975 1436.93 586.45L1400.7 571.066Z" fill="#9B604E"/>
<path d="M1508.31 303.79C1488.96 353.352 1516.38 360.961 1532.51 358.571C1586.5 334.81 1573.66 297.988 1580.52 257.856C1587.37 217.723 1507.04 210.601 1528.34 184.628C1549.64 158.655 1479.45 115.713 1464.87 143.08C1453.2 164.974 1434.62 151.147 1426.79 141.498C1414.99 127.978 1391.28 109.492 1390.75 143.701C1390.22 177.912 1357.83 155.743 1341.71 140.383C1299.9 116.062 1216 75.3225 1214.83 106.924C1213.65 138.526 1197.86 142.761 1190.11 140.929C1180.29 138.219 1158.22 140.954 1148.42 173.564C1138.63 206.174 1171.18 198.548 1188.67 190.658C1203.92 183.709 1216.08 196.704 1220.25 204.071C1231.72 276.057 1264.66 250.897 1279.7 229.318C1305.95 170.429 1333.89 192.508 1344.58 210.909C1348.94 250.115 1364.73 250.594 1372.07 245.932C1385.96 232.568 1397.06 238.789 1400.87 243.57C1413.77 323.17 1456.23 292.132 1475.86 266.663C1504.12 263.49 1509.27 290.093 1508.31 303.79Z" fill="#19A367"/>
<g clip-path="url(#clip6)">
<path d="M1457.68 579.524C1472.14 588.62 1465.94 597.532 1461.04 600.85L1338.29 552.06C1340.41 540.124 1348.77 542.166 1352.69 544.679C1361.35 553.043 1363.82 549.616 1363.98 546.857C1371.02 534.075 1379.25 536.925 1382.49 539.948C1385.85 545.812 1390.73 545.138 1392.75 544.068C1401.24 531.489 1408.53 530.107 1411.12 530.989C1420.7 531.826 1427.65 550 1429.92 558.983C1433.02 563.612 1437.1 563.274 1438.75 562.527C1451.51 553.545 1455.88 558.666 1456.46 562.349C1455.13 575.166 1456.72 579.139 1457.68 579.524Z" fill="#026951"/>
</g>
<g clip-path="url(#clip7)">
<path d="M712.792 186.986C709.666 187.914 710.347 189.871 711.079 190.733L736.145 188.073C736.368 185.77 734.726 185.716 733.876 185.976C731.855 187.068 731.577 186.312 731.691 185.796C731.054 183.085 729.394 183.186 728.644 183.575C727.724 184.48 726.862 184.105 726.546 183.805C725.633 181.057 724.364 180.428 723.843 180.457C722.039 180.118 719.829 183.102 718.949 184.637C718.141 185.328 717.409 185.056 717.144 184.834C715.261 182.527 714.195 183.244 713.898 183.891C713.484 186.315 712.988 186.964 712.792 186.986Z" fill="#026951"/>
</g>
<g clip-path="url(#clip8)">
<path d="M510.357 494.561C502.37 519.852 448.238 581.639 422.17 609.371L418.51 613.031H1445.47L1433.5 591.733C1388.76 519.32 1361.61 492.786 1353.63 488.571C1345.1 480.052 1302.6 467.717 1282.41 462.614C1253.66 410.434 1241.15 397.833 1238.48 398.054C1166.07 394.86 1127.56 379.419 1117.35 372.097C1105.11 360.916 1071.43 327.948 1056.12 312.862C1050.26 309.135 991.114 297.554 962.275 292.23C926.778 299.551 854.853 313.927 851.125 312.862C847.398 311.797 764.381 340.816 723.338 355.458L701.374 372.097C671.557 443.446 656.559 462.614 652.788 463.28C615.516 453.695 542.305 480.14 510.357 494.561Z" fill="#C1755E"/>
<path d="M1112.36 376.922L1076.92 465.775L1092.39 493.396L1112.36 376.922Z" fill="#995C4A"/>
<path d="M1077.42 502.215L1238.83 398.851L1164.11 432.954L1077.42 502.215Z" fill="#995C4A"/>
<path d="M922.105 501.007L905.741 501.487L1048.27 316.951L1053.82 313.999L922.105 501.007Z" fill="#995C4A"/>
<path d="M1050.29 446.807C979.348 429.902 959.28 337.71 958.115 293.727C880.244 308.237 854.343 312.086 851.125 312.197C848.464 311.665 765.046 340.151 723.67 354.46L701.041 372.43C690.392 402.78 665.101 444.976 653.786 462.281L622.172 483.247L539.975 522.515L433.485 612.199H1201.05C1065.27 599.82 1060.95 561.894 1075.75 544.478C1096.83 518.965 1121.25 463.712 1050.29 446.807Z" fill="#19A367"/>
<path d="M846.467 325.175L957.616 293.894C950.694 295.491 881.964 307.205 848.464 312.862C843.405 313.129 762.938 340.705 723.337 354.46L701.041 372.097C696.249 391.798 667.763 440.207 654.119 461.948L620.508 484.245L538.644 522.847L495.382 560.452L433.818 611.7H830.493C716.016 610.037 656.449 541.151 749.627 544.478C824.17 547.141 893.833 531.167 919.346 522.847C1039.68 474.927 969.485 449.636 919.346 442.98C742.306 457.623 745.301 424.899 768.929 406.707L846.467 325.175Z" fill="#158655"/>
<path d="M1005.39 583.367C1005.89 576.337 1004.68 561.446 995.884 558.12C1000.05 558.813 1009.49 563.347 1014.01 575.941C1015 568.318 1019.89 552.416 1031.54 549.803C1027.28 555.248 1019.72 568.1 1023.52 575.941C1027.28 570.496 1036.12 560.199 1041.34 562.575C1036 566.733 1026.25 576.713 1030.06 583.367C1033.52 579.802 1041.52 573.327 1045.8 575.941C1042.53 576.832 1036.53 580.04 1038.67 585.743" stroke="#026951" stroke-width="6"/>
<path d="M729.645 579.013C730.008 573.871 729.122 562.979 722.672 560.545C725.723 561.052 732.652 564.369 735.963 573.582C736.69 568.005 740.278 556.374 748.819 554.462C745.696 558.445 740.147 567.845 742.936 573.582C745.696 569.598 752.175 562.066 756.01 563.804C752.088 566.846 744.941 574.147 747.73 579.013C750.272 576.406 756.14 571.669 759.278 573.582C756.881 574.233 752.48 576.58 754.049 580.752" stroke="#026951" stroke-width="6"/>
<path d="M897.841 427.317C898.403 419.376 897.033 402.555 887.066 398.797C891.78 399.58 902.489 404.702 907.607 418.929C908.73 410.317 914.275 392.354 927.475 389.402C922.648 395.553 914.073 410.071 918.383 418.929C922.648 412.778 932.66 401.145 938.587 403.83C932.526 408.528 921.481 419.801 925.791 427.317C929.72 423.291 938.79 415.976 943.639 418.929C939.934 419.935 933.132 423.559 935.557 430.002" stroke="#026951" stroke-width="6"/>
<path d="M869.666 339.339C869.904 335.954 869.324 328.784 865.102 327.183C867.099 327.516 871.634 329.7 873.802 335.764C874.278 332.093 876.626 324.437 882.217 323.178C880.172 325.8 876.54 331.988 878.366 335.764C880.172 333.141 884.413 328.184 886.923 329.328C884.356 331.33 879.678 336.135 881.503 339.339C883.167 337.623 887.009 334.505 889.062 335.764C887.494 336.192 884.613 337.737 885.64 340.483" stroke="#026951" stroke-width="6"/>
<path d="M822.063 493.994C822.317 490.35 821.697 482.628 817.182 480.903C819.318 481.263 824.168 483.614 826.486 490.144C826.994 486.191 829.506 477.946 835.485 476.591C833.299 479.414 829.414 486.078 831.367 490.144C833.299 487.32 837.834 481.982 840.518 483.214C837.773 485.369 832.77 490.545 834.723 493.994C836.502 492.146 840.61 488.789 842.806 490.144C841.128 490.606 838.047 492.27 839.146 495.226" stroke="#19A367" stroke-width="6"/>
<path d="M732.877 379.185C733.131 375.54 732.511 367.819 727.996 366.093C730.132 366.453 734.982 368.804 737.301 375.334C737.809 371.382 740.32 363.136 746.299 361.781C744.113 364.605 740.229 371.269 742.181 375.334C744.113 372.511 748.648 367.171 751.333 368.404C748.587 370.56 743.584 375.735 745.537 379.185C747.316 377.337 751.424 373.979 753.62 375.334C751.943 375.796 748.862 377.46 749.96 380.417" stroke="#19A367" stroke-width="6"/>
<path d="M1340 563.176L1281.41 462.614C1310.79 462.614 1351.36 485.33 1367.98 496.689C1378.47 505.332 1433.55 584.508 1459.78 623.015L1340 563.176Z" fill="#995C4A"/>
<path d="M1123.74 660.326L1109.2 652.792L1323.47 560.814L1329.75 560.932L1123.74 660.326Z" fill="#995C4A"/>
</g>
<g clip-path="url(#clip9)">
<path d="M859.103 126.805C867.738 195.922 907.675 232.4 926.565 242H962.544C983.412 242 1021.61 165.203 1038.1 126.805C1030.18 206.721 991.028 263.899 972.438 282.498L977.835 358.094C976.396 376.814 991.028 472.691 998.523 518.286C984.132 501.009 954.149 404.292 940.956 358.094C925.125 414.972 897.781 488.589 886.088 518.286L909.474 358.094C913.792 332.176 914.272 296.897 913.972 282.498C858.564 206.902 854.306 147.204 859.103 126.805Z" fill="#9A4040"/>
<path d="M944.319 250.532C913.314 251.006 886.63 208.402 877.163 187.041C889.47 214.628 913.65 234.548 924.201 241.06H966.803C976.506 240.113 999.049 204.653 1009.11 187.041C991.357 240.912 958.519 251.815 944.319 250.532Z" fill="#783232"/>
<path d="M945.993 250.708C963.38 250.708 977.475 235.155 977.475 215.969C977.475 196.784 963.38 181.231 945.993 181.231C928.606 181.231 914.511 196.784 914.511 215.969C914.511 235.155 928.606 250.708 945.993 250.708Z" fill="#9A4040"/>
<path d="M917.941 284.934L913.944 282.193L912.405 336.384L917.941 284.934Z" fill="#783232"/>
<path d="M950.441 362.334L941.004 357.796C942.152 365.327 965.822 437.547 977.513 472.714L950.441 362.334Z" fill="#783232"/>
</g>
<g clip-path="url(#clip10)">
<path d="M1167.36 571.768C1160.22 502.752 1193.1 434.926 1210.43 409.64C1189.99 417.256 1152.8 436.612 1136.75 445.338C1164.32 411.068 1214.4 387.428 1235.99 379.892C1219.81 356.094 1240.73 346.177 1253.22 344.194C1282.21 347.05 1273.42 369.183 1265.4 379.892C1295.11 363.709 1329.87 351.73 1343.54 347.764L1260.35 404.88L1240.14 428.084C1263.91 421.42 1266.88 428.877 1265.4 433.439C1254.7 489.365 1233.21 509.296 1223.8 512.271C1234.5 508.701 1239.15 466.162 1240.14 445.338L1210.43 457.237C1194.99 472.706 1175.28 540.037 1167.36 571.768Z" fill="#9A4040"/>
<path d="M1207.32 392.535C1216.23 389.084 1236.58 386.536 1245.64 385.693L1237.03 379.446C1229.06 381.826 1213.9 389.163 1207.32 392.535Z" fill="#783232"/>
<path d="M1306.55 360.853C1286.11 374.537 1265.74 382.916 1258.12 385.395V382.272L1266.74 379.446C1272.23 375.162 1295.56 365.266 1306.55 360.853Z" fill="#783232"/>
<path d="M1251.43 386.734C1263.58 386.734 1273.42 375.813 1273.42 362.341C1273.42 348.869 1263.58 337.947 1251.43 337.947C1239.29 337.947 1229.45 348.869 1229.45 362.341C1229.45 375.813 1239.29 386.734 1251.43 386.734Z" fill="#9A4040"/>
<path d="M1240.05 436.588C1240.76 437.358 1240.39 442.912 1240.12 445.593L1210.68 457.054C1216.62 450.909 1232.73 440.849 1240.05 436.588Z" fill="#783232"/>
<path d="M1246.77 398.795C1236.54 400.693 1218.32 406.803 1210.48 409.621C1209.06 410.807 1204.64 418.42 1202.6 422.078L1246.77 398.795Z" fill="#783232"/>
</g>
<path d="M720.601 300.137L661.296 370.587L645.135 376.024C623.714 378.589 579.904 348.833 560.676 333.634C575.21 358.924 619.369 389.144 639.633 401.092L656.306 461.067C646.069 484.478 648.854 494.723 651.526 496.919C668.401 512.6 690.719 520.878 699.769 523.057C670.227 505.601 667.463 494.266 669.773 490.78L678.916 461.005C690.481 467.793 738.046 528.75 760.382 558.38L709.008 462.488L673.519 389.69L720.601 300.137Z" fill="#9A4040"/>
<path d="M697.581 327.797C678.61 363.259 659.97 375.167 653.021 376.688L660.969 370.56L697.581 327.797Z" fill="#783232"/>
<path d="M607.158 364.302C624.461 377.861 640.86 378.991 646.897 377.861L638.037 375.775C632.513 376.192 615.149 368.3 607.158 364.302Z" fill="#783232"/>
<path d="M652.922 376.966C664.201 373.17 669.976 360.069 665.82 347.704C661.665 335.338 649.152 328.39 637.873 332.185C626.594 335.98 620.819 349.081 624.975 361.447C629.13 373.813 641.643 380.761 652.922 376.966Z" fill="#9A4040"/>
<path d="M680.742 456.174L678.438 461.407C684.497 463.133 721.281 507.963 738.915 530.162C733.596 516.54 697.917 475.161 680.742 456.174Z" fill="#783232"/>
<path d="M659.145 454C658.624 454.626 657.104 459.041 656.409 461.17L639.731 401.198C645.464 411.211 655.062 440.571 659.145 454Z" fill="#783232"/>
<g clip-path="url(#clip11)">
<path d="M775.785 444.966C768.723 397.587 782.846 311.256 790.79 274.014H817.712C832.188 376.838 829.923 430.825 826.98 444.966C817.094 378.434 804.619 352.559 799.617 347.939C790.79 358.692 780.051 417.103 775.785 444.966Z" fill="#9A4040"/>
<path d="M768.319 203.201C767.399 250.638 784.221 281.749 792.747 291.376L804.39 293.802L808.374 274.639L796.731 272.213C786.758 264.092 773.635 222.821 768.319 203.201Z" fill="#9A4040"/>
<path d="M844.183 368.43C846.014 317.627 829.734 284.493 821.365 274.276L809.733 271.801L805.37 292.363L817.003 294.837C826.852 303.427 839.227 347.478 844.183 368.43Z" fill="#9A4040"/>
<path d="M821.461 274.344C817.487 276.876 809.569 276.103 806.107 275.399L809.118 271.48C812.781 272.435 820.377 274.344 821.461 274.344Z" fill="#783232"/>
<path d="M775.85 227.92C780.197 259.292 794.722 272.745 801.441 275.55L791.275 263.484C789.592 262.214 780.291 239.246 775.85 227.92Z" fill="#783232"/>
<path d="M807.932 277.389C818.578 277.389 827.208 267.858 827.208 256.102C827.208 244.346 818.578 234.816 807.932 234.816C797.286 234.816 788.656 244.346 788.656 256.102C788.656 267.858 797.286 277.389 807.932 277.389Z" fill="#9A4040"/>
<path d="M816.203 293.467C817.786 294.848 820.451 299.01 821.585 300.919C823.769 313.746 827 360.384 828.343 382.1L816.203 293.467Z" fill="#783232"/>
<path d="M796.312 344.798L799.801 348.018C792.636 356.653 782.77 403.47 778.732 425.8C780.508 391.288 791.192 357.419 796.312 344.798Z" fill="#783232"/>
</g>
<g clip-path="url(#clip12)">
<path d="M1058.68 474.328C1050.33 418.268 1067.04 316.119 1076.43 272.051H1108.29C1125.41 393.716 1122.73 457.596 1119.25 474.328C1107.55 395.605 1092.79 364.99 1086.88 359.523C1076.43 372.246 1063.73 441.362 1058.68 474.328Z" fill="#9A4040"/>
<path d="M1047.46 375.065C1046.37 318.937 1066.27 282.124 1076.36 270.734L1090.13 267.863L1094.85 290.537L1081.07 293.408C1069.27 303.017 1053.75 351.85 1047.46 375.065Z" fill="#9A4040"/>
<path d="M1135.16 382.699C1137.32 322.586 1118.06 283.38 1108.16 271.292L1094.4 268.364L1089.24 292.693L1103 295.621C1114.65 305.784 1129.29 357.908 1135.16 382.699Z" fill="#9A4040"/>
<path d="M1076.56 270.604C1079.5 273.537 1086.92 274.271 1090.25 274.271C1097.56 275.288 1105.27 272.739 1108.22 271.338C1107.16 270.986 1104.83 270.702 1103.8 270.604L1081.12 270.018L1076.56 270.604Z" fill="#783232"/>
<path d="M1114.83 249.442C1114.83 263.352 1104.62 274.629 1092.03 274.629C1079.43 274.629 1069.22 263.352 1069.22 249.442C1069.22 235.532 1079.43 224.255 1092.03 224.255C1104.62 224.255 1114.83 235.532 1114.83 249.442Z" fill="#9A4040"/>
<path d="M1091.3 355.263L1086.69 359.724C1096.65 371.147 1111.48 434.032 1117.66 464.046C1114.14 417.51 1098.62 372.134 1091.3 355.263Z" fill="#783232"/>
<path d="M1104.93 290.719C1108.14 297.758 1111.91 308.964 1113.4 313.687C1114.11 313.687 1120.23 331.086 1123.2 339.786C1120.35 316.878 1109.83 297.53 1104.93 290.719Z" fill="#783232"/>
<path d="M1077.46 290.829C1074.1 297.827 1070.1 308.992 1068.52 313.699C1067.81 313.686 1061.34 331.018 1058.19 339.685C1061.48 316.771 1072.4 297.567 1077.46 290.829Z" fill="#783232"/>
</g>
<g clip-path="url(#clip13)">
<path d="M640.893 186.557L632.273 174.182L667.655 167.66L664.364 182.23L640.893 186.557Z" fill="#FEB46D"/>
<path d="M627.545 177.023L631.465 144.254L661.241 138.765L673.085 168.628L627.545 177.023Z" fill="#FFD059"/>
<path d="M673.053 168.455L646.469 150.977L627.863 176.785L673.053 168.455Z" fill="#FFDC85"/>
<path d="M661.417 138.733L646.293 151.009L631.64 144.222L661.417 138.733Z" fill="#DEC689"/>
</g>
<g clip-path="url(#clip14)">
<path d="M546.523 203.71C533.108 208.243 530.341 202.722 530.634 199.395L528.455 184.887L542.025 166.135L598.332 170.52C595.844 175.036 598.249 183.758 599.762 187.555C606.128 201.467 600.833 202.854 597.39 201.808C591.44 199.827 589.263 202.365 588.918 203.882C586.968 211.235 583.978 210.82 582.727 209.695C576.178 202.703 571.479 206.001 569.949 208.525C567.442 216.795 562.745 217.645 560.709 217.036L546.523 203.71Z" fill="#0C504C"/>
<path d="M538.691 188.437C535.67 196.521 531.674 196.992 530.053 196.216L518.743 169.099L619.935 145.505C618.465 152.271 621.321 159.164 622.932 161.765C628.725 172.692 622.302 174.095 618.366 173.43C613.31 169.355 611.692 171.678 611.515 173.349C611.208 182.957 606.452 183.248 604.112 182.193C595.461 176.184 593.517 179.838 593.627 182.415C600.196 199.715 592.139 200.554 587.289 198.811C581.058 194.398 577.615 196.23 576.672 197.698C564.288 209.636 559.234 199.818 558.255 193.416C552.781 199.131 548.739 196.005 547.402 193.728C543.216 184.908 539.851 186.526 538.691 188.437Z" fill="#037C60"/>
<path d="M542.078 200.696C544.32 200.928 548.657 205.792 550.546 208.194C550.462 217.706 547.075 237.259 545.211 246.808L542.107 257.53L560.524 253.023C563.644 247.258 560.54 208.092 558.599 189.23C565.196 185.896 576.394 176.996 581.168 172.963C584.818 171.288 594.597 157.631 599.03 151.012L596.967 149.759L590.805 158.885L590.669 149.542L589.048 151.697C589.212 155.563 587.3 160.784 586.324 162.911C575.893 173.902 562.653 181.596 557.337 184.069C557.933 182.673 554.897 169.821 553.305 163.57L547.833 163.542L549.106 175.145C543.112 174.894 536.158 168.483 533.43 165.309L531.074 167.643C532.314 169.527 537.238 172.906 539.546 174.36C536.809 177.217 532.144 177.083 530.153 176.658L530.514 178.133L534.975 178.018C537.364 178.214 540.513 176.988 541.789 176.35C543.619 178.09 547.659 179.341 549.451 179.749C550.243 182.993 550.442 195.524 550.443 201.383C549.677 200.164 545.046 198.732 542.826 198.169L542.078 200.696Z" fill="#C1755E"/>
<path d="M552.697 254.938C555.262 248.503 553.58 196.913 552.417 171.922L548.626 171.183L549.115 175.183C545.949 175.644 539.764 171.259 537.067 169.009L535.539 171.541L539.299 174.152C539.186 174.964 536.347 176.182 534.943 176.689L535.214 177.8C536.924 178.088 540.285 176.853 541.752 176.2C543.603 178.023 547.726 179.348 549.557 179.783L550.479 201.53C549.73 200.065 544.979 198.592 542.697 198.04L541.974 200.669C544.675 201.499 548.781 206.164 550.497 208.392C550.528 214.27 548.619 226.803 547.661 232.334C546.627 242.475 543.405 253.386 541.924 257.575L552.697 254.938Z" fill="#9B604E"/>
<path d="M534.942 175.487C538.066 190.192 530.095 191.062 525.718 189.659C511.786 180.568 517.032 170.885 516.952 159.379C516.874 147.874 539.535 149.555 534.795 141.34C530.055 133.124 551.528 124.353 554.337 132.65C556.583 139.289 562.381 136.281 564.998 133.948C568.892 130.716 576.329 126.643 574.919 136.208C573.508 145.772 583.523 141.069 588.707 137.521C601.439 132.647 626.624 125.116 625.512 133.983C624.399 142.849 628.599 144.752 630.837 144.594C633.69 144.287 639.705 146.057 640.943 155.599C642.182 165.141 633.479 161.528 628.972 158.529C625.05 155.895 621.076 158.964 619.58 160.827C613.116 180.38 605.1 171.859 601.9 165.154C597.282 147.533 588.508 152.415 584.698 157.059C581.7 167.793 577.289 167.206 575.458 165.571C572.206 161.21 568.836 162.438 567.559 163.597C560.348 185.208 549.952 174.613 545.655 166.614C537.941 164.439 535.298 171.623 534.942 175.487Z" fill="#19A367"/>
<g clip-path="url(#clip15)">
<path d="M536.469 254.696C532.031 256.572 533.35 259.34 534.564 260.49L570.918 252.487C570.872 249.062 568.452 249.249 567.248 249.771C564.459 251.708 563.928 250.64 564.011 249.863C562.635 245.977 560.216 246.396 559.178 247.091C557.975 248.573 556.649 248.162 556.136 247.772C554.35 243.876 552.384 243.158 551.625 243.286C548.922 243.082 546.163 247.833 545.122 250.234C544.049 251.384 542.93 251.103 542.505 250.82C539.366 247.732 537.919 248.961 537.588 249.961C537.374 253.596 536.753 254.632 536.469 254.696Z" fill="#026951"/>
</g>
</g>
<g clip-path="url(#clip16)">
<path d="M1417.64 526.679C1408.82 532.57 1413.45 541.077 1416.86 544.594C1436.73 560.81 1445.16 538.537 1446.89 525.373C1449.94 505.162 1443.17 506.821 1439.4 510.177C1438.51 485.665 1431.4 485.586 1427.96 488.61C1421.44 466.789 1414.33 469.773 1411.59 473.992C1384.26 445.519 1392.5 468.308 1400.03 483.262C1386.75 486.502 1399.9 499.066 1408.13 504.943C1398.74 514.286 1410.56 523.327 1417.64 526.679Z" fill="#5C9F62"/>
<path d="M1395.59 464.956C1417.41 487.697 1431.05 530.552 1435.15 549.136L1437.58 546.787C1424.7 494.377 1404.22 470.395 1395.59 464.956Z" fill="#4C8551"/>
<path d="M1466.81 577.914C1479.54 583.757 1475.28 595.809 1471.56 601.104C1449.04 626.376 1433.41 599.095 1428.42 582.296C1420.23 556.586 1429.39 557.341 1435 560.932C1431.05 528.794 1440.3 527.212 1445.42 530.438C1449.37 500.637 1459.25 503.047 1463.7 507.978C1493.39 465.176 1487.41 496.595 1480.71 517.655C1498.7 519.116 1484.18 538.229 1474.67 547.602C1488.86 557.828 1475.34 572.071 1466.81 577.914Z" fill="#65AD6B"/>
<path d="M1482.68 492.869C1458.98 527.052 1450.13 585.753 1448.67 610.83L1445.01 608.274C1450.86 537.278 1472.56 501.756 1482.68 492.869Z" fill="#4C8551"/>
<path d="M1409.51 585.607C1398.67 594.467 1405.83 605.057 1410.77 609.245C1438.95 628.024 1447.18 597.689 1447.77 580.174C1449.2 553.232 1440.52 556.271 1436 561.159C1431.71 529.066 1422.36 529.865 1418.22 534.277C1406.87 506.435 1397.91 511.258 1394.85 517.15C1355.31 483.213 1369.04 512.109 1380.84 530.799C1363.8 536.745 1382.68 551.581 1394.25 558.256C1383.1 571.726 1399.78 582.103 1409.51 585.607Z" fill="#66BD6E"/>
<path d="M1372.68 507.311C1404.24 534.418 1427.63 588.99 1435.38 612.888L1438.27 609.493C1414.68 542.268 1384.71 513.361 1372.68 507.311Z" fill="#4C8551"/>
</g>
<g clip-path="url(#clip17)">
<path d="M726.552 160.525C722.82 162.858 721.509 177.965 721.321 185.227C721.598 186.22 722.23 185.68 722.511 185.286C724.962 181.571 726.408 176.954 726.825 175.11C728.78 162.257 727.457 160.031 726.552 160.525Z" fill="#FFCF57"/>
<path d="M726.27 161.719C726.377 169.626 723.171 180.977 721.555 185.664L721.938 185.836C726.887 170.41 726.888 163.33 726.27 161.719Z" fill="#FEB46D"/>
<path d="M733.759 167.775C729.985 168.693 725.01 179.932 722.995 185.437C722.977 186.26 723.653 185.993 723.993 185.757C727.03 183.486 729.44 180.293 730.266 178.981C735.214 169.614 734.656 167.607 733.759 167.775Z" fill="#FFD773"/>
<path d="M733.214 168.621C731.286 174.688 725.656 182.618 723.082 185.824L723.365 186.044C731.519 175.404 733.329 169.996 733.214 168.621Z" fill="#FEB46D"/>
<path d="M710.795 167.625C709.589 171.307 716.548 181.434 720.179 186.037C720.871 186.485 721 185.772 720.978 185.359C720.643 181.591 719.191 177.869 718.508 176.478C713.13 167.358 711.125 166.776 710.795 167.625Z" fill="#FFD56C"/>
<path d="M711.23 168.532C715.385 173.357 719.178 182.299 720.555 186.167L720.892 186.043C716.12 173.535 712.462 169.157 711.23 168.532Z" fill="#FEB46D"/>
<path d="M708.097 175.776C708.12 178.719 715.588 184.335 719.319 186.775C719.927 186.93 719.847 186.385 719.731 186.094C718.576 183.461 716.628 181.13 715.799 180.294C709.714 175.022 708.129 175.085 708.097 175.776Z" fill="#FFCF57"/>
<path d="M708.63 176.325C712.793 178.798 717.693 184.324 719.622 186.777L719.835 186.607C713.365 178.75 709.669 176.478 708.63 176.325Z" fill="#FEB46D"/>
<path d="M720.307 170.281C718.451 172.258 719.853 180.727 720.786 184.714C721.092 185.202 721.385 184.788 721.494 184.52C722.399 182.034 722.584 179.247 722.564 178.165C721.864 170.8 720.767 169.84 720.307 170.281Z" fill="#FFD773"/>
<path d="M720.313 170.983C721.513 175.266 721.262 182.051 720.986 184.907L721.236 184.928C721.925 175.596 720.907 171.743 720.313 170.983Z" fill="#FEB46D"/>
</g>
<path d="M377.141 510.897C387.965 515.836 396.967 556.247 400.115 575.835C399.735 578.625 397.85 577.396 396.955 576.433C389.051 567.28 383.506 555.315 381.721 550.477C371.816 516.406 374.541 509.894 377.141 510.897Z" fill="#FFCF57"/>
<path d="M378.328 514.023C380.921 535.469 393.623 565.012 399.649 577.103L398.687 577.71C379.844 537.778 377.263 518.614 378.328 514.023Z" fill="#FEB46D"/>
<path d="M360.519 533.179C370.939 534.274 388.327 562.862 395.718 577.019C396.064 579.24 394.16 578.768 393.165 578.254C384.224 573.226 376.619 565.472 373.934 562.224C357.299 538.693 358.059 533.056 360.519 533.179Z" fill="#FFD773"/>
<path d="M362.282 535.269C369.645 550.98 387.579 570.37 395.625 578.101L394.95 578.801C369.282 553.006 362.476 539.032 362.282 535.269Z" fill="#FEB46D"/>
<path d="M421.837 524.304C426.403 533.827 411.49 563.807 403.463 577.606C401.775 579.073 401.17 577.19 401.079 576.065C400.604 565.741 403.127 555.13 404.448 551.114C415.5 524.443 420.646 522.128 421.837 524.304Z" fill="#FFD56C"/>
<path d="M421.006 526.919C411.657 541.513 404.775 567.118 402.503 578.096L401.558 577.885C409.759 542.267 417.941 529.067 421.006 526.919Z" fill="#FEB46D"/>
<path d="M432.018 545.375C433.028 553.348 415.112 571.304 406.028 579.286C404.462 579.93 404.476 578.426 404.679 577.594C406.808 570.042 411.164 563.014 413.077 560.444C427.42 543.929 431.68 543.517 432.018 545.375Z" fill="#FFCF57"/>
<path d="M430.793 547.056C420.567 555.286 409.483 572.051 405.22 579.404L404.589 579.021C419.02 555.366 428.071 547.855 430.793 547.056Z" fill="#FEB46D"/>
<path d="M397.384 535.002C403.064 539.669 402.399 563.111 401.357 574.249C400.717 575.682 399.783 574.67 399.395 573.985C396.071 567.588 394.561 560.113 394.222 557.176C393.411 536.982 395.992 533.979 397.384 535.002Z" fill="#FFD773"/>
<path d="M397.623 536.906C395.976 548.941 399.116 567.214 400.892 574.846L400.232 574.994C394.995 549.985 396.311 539.182 397.623 536.906Z" fill="#FEB46D"/>
<path d="M1071.05 429.754C1050.51 439.067 1033.43 515.271 1027.45 552.209C1028.18 557.47 1031.75 555.152 1033.45 553.335C1048.45 536.075 1058.97 513.513 1062.36 504.39C1081.15 440.142 1075.98 427.863 1071.05 429.754Z" fill="#FFCF57"/>
<path d="M1068.79 435.649C1063.88 476.09 1039.77 531.8 1028.34 554.6L1030.17 555.744C1065.92 480.443 1070.82 444.305 1068.79 435.649Z" fill="#FEB46D"/>
<path d="M1102.59 471.771C1082.82 473.836 1049.82 527.745 1035.8 554.441C1035.14 558.629 1038.75 557.739 1040.64 556.771C1057.61 547.289 1072.04 532.667 1077.13 526.542C1108.7 482.169 1107.25 471.539 1102.59 471.771Z" fill="#FFD773"/>
<path d="M1099.24 475.713C1085.27 505.339 1051.24 541.902 1035.97 556.481L1037.26 557.801C1085.96 509.159 1098.87 482.808 1099.24 475.713Z" fill="#FEB46D"/>
<path d="M986.238 455.036C977.577 472.993 1005.87 529.526 1021.1 555.549C1024.31 558.314 1025.45 554.763 1025.63 552.642C1026.53 533.175 1021.74 513.164 1019.23 505.593C998.264 455.299 988.499 450.933 986.238 455.036Z" fill="#FFD56C"/>
<path d="M987.816 459.968C1005.56 487.487 1018.61 535.77 1022.92 556.472L1024.72 556.074C1009.16 488.908 993.632 464.017 987.816 459.968Z" fill="#FEB46D"/>
<path d="M966.922 494.77C965.006 509.804 998.999 543.664 1016.24 558.715C1019.21 559.931 1019.18 557.095 1018.79 555.525C1014.76 541.284 1006.49 528.031 1002.86 523.185C975.647 492.043 967.562 491.266 966.922 494.77Z" fill="#FFCF57"/>
<path d="M969.245 497.939C988.65 513.46 1009.68 545.072 1017.77 558.939L1018.97 558.217C991.585 513.611 974.41 499.446 969.245 497.939Z" fill="#FEB46D"/>
<path d="M1032.64 475.208C1021.86 484.01 1023.12 528.215 1025.1 549.217C1026.31 551.919 1028.09 550.011 1028.82 548.719C1035.13 536.657 1037.99 522.562 1038.64 517.022C1040.18 478.943 1035.28 473.28 1032.64 475.208Z" fill="#FFD773"/>
<path d="M1032.18 478.8C1035.31 501.495 1029.35 535.951 1025.98 550.343L1027.23 550.622C1037.17 503.463 1034.67 483.091 1032.18 478.8Z" fill="#FEB46D"/>
<g clip-path="url(#clip18)">
<path d="M596.601 514.648C605.421 520.539 600.796 529.046 597.381 532.563C577.507 548.779 569.083 526.506 567.356 513.342C564.306 493.131 571.073 494.791 574.837 498.146C575.73 473.634 582.839 473.555 586.283 476.579C592.804 454.758 599.91 457.742 602.648 461.961C629.981 433.488 621.744 456.277 614.208 471.231C627.491 474.472 614.344 487.035 606.11 492.912C615.499 502.255 603.683 511.296 596.601 514.648Z" fill="#5C9F62"/>
<path d="M618.65 452.925C596.833 475.666 583.188 518.521 579.092 537.105L576.662 534.756C589.537 482.346 610.018 458.365 618.65 452.925Z" fill="#4C8551"/>
<path d="M547.431 565.883C534.706 571.726 538.96 583.778 542.678 589.073C565.202 614.345 580.828 587.064 585.825 570.266C594.016 544.555 584.85 545.31 579.243 548.901C583.192 516.763 573.941 515.181 568.822 518.407C564.873 488.606 554.988 491.016 550.539 495.947C520.848 453.145 526.832 484.565 533.536 505.625C515.546 507.085 530.062 526.198 539.57 535.571C525.382 545.797 538.899 560.04 547.431 565.883Z" fill="#65AD6B"/>
<path d="M531.565 480.839C555.259 515.022 564.108 573.722 565.571 598.799L569.227 596.243C563.377 525.247 541.681 489.725 531.565 480.839Z" fill="#4C8551"/>
<path d="M604.732 573.576C615.569 582.437 608.409 593.026 603.474 597.215C575.295 615.993 567.065 585.658 566.473 568.143C565.041 541.201 573.72 544.241 578.238 549.128C582.534 517.035 591.886 517.834 596.024 522.246C607.373 494.404 616.329 499.227 619.389 505.119C658.931 471.182 645.204 500.078 633.397 518.768C650.437 524.714 631.562 539.551 619.995 546.226C631.141 559.695 614.464 570.072 604.732 573.576Z" fill="#66BD6E"/>
<path d="M641.566 495.28C610.003 522.387 586.614 576.959 578.865 600.857L575.972 597.462C599.566 530.237 629.532 501.33 641.566 495.28Z" fill="#4C8551"/>
</g>
<g clip-path="url(#clip19)">
<path d="M736.924 504.249C730.874 508.287 734.046 514.119 736.389 516.53C750.023 527.646 755.801 512.377 756.986 503.354C759.078 489.499 754.436 490.636 751.854 492.937C751.242 476.133 746.364 476.079 744.002 478.152C739.529 463.194 734.654 465.239 732.776 468.131C714.026 448.613 719.676 464.235 724.846 474.486C715.734 476.707 724.753 485.32 730.401 489.349C723.96 495.754 732.066 501.951 736.924 504.249Z" fill="#5C9F62"/>
<path d="M721.799 461.937C736.765 477.526 746.126 506.904 748.935 519.643L750.602 518.033C741.77 482.106 727.72 465.666 721.799 461.937Z" fill="#4C8551"/>
<path d="M770.654 539.371C779.383 543.377 776.465 551.638 773.915 555.268C758.464 572.592 747.745 553.891 744.316 542.375C738.698 524.751 744.985 525.268 748.831 527.73C746.123 505.699 752.469 504.614 755.98 506.826C758.689 486.397 765.47 488.049 768.522 491.429C788.89 462.088 784.785 483.626 780.186 498.063C792.527 499.065 782.569 512.166 776.047 518.592C785.78 525.602 776.507 535.366 770.654 539.371Z" fill="#65AD6B"/>
<path d="M781.538 481.072C765.284 504.505 759.214 544.745 758.211 561.935L755.702 560.183C759.716 511.515 774.599 487.164 781.538 481.072Z" fill="#4C8551"/>
<path d="M731.347 544.645C723.912 550.719 728.824 557.978 732.209 560.849C751.54 573.722 757.185 552.927 757.592 540.92C758.574 522.451 752.621 524.535 749.521 527.885C746.574 505.885 740.159 506.433 737.32 509.457C729.535 490.371 723.391 493.678 721.292 497.716C694.166 474.453 703.583 494.261 711.682 507.073C699.993 511.149 712.941 521.32 720.876 525.896C713.23 535.129 724.671 542.242 731.347 544.645Z" fill="#66BD6E"/>
<path d="M706.079 490.972C727.73 509.554 743.775 546.964 749.091 563.346L751.075 561.019C734.89 514.935 714.334 495.119 706.079 490.972Z" fill="#4C8551"/>
</g>
<g clip-path="url(#clip20)">
<path d="M927.948 525.43C923.346 528.51 925.759 532.96 927.541 534.799C937.91 543.279 942.305 531.631 943.206 524.747C944.797 514.177 941.267 515.045 939.303 516.8C938.837 503.981 935.128 503.939 933.331 505.521C929.929 494.109 926.221 495.67 924.793 497.876C910.532 482.986 914.83 494.904 918.761 502.724C911.831 504.419 918.69 510.989 922.986 514.063C918.088 518.949 924.253 523.677 927.948 525.43Z" fill="#5C9F62"/>
<path d="M916.444 493.151C927.826 505.044 934.946 527.455 937.083 537.174L938.35 535.946C931.633 508.537 920.947 495.995 916.444 493.151Z" fill="#4C8551"/>
<path d="M953.602 552.224C960.241 555.28 958.021 561.583 956.082 564.352C944.33 577.568 936.177 563.301 933.57 554.516C929.297 541.07 934.079 541.465 937.004 543.343C934.944 526.536 939.77 525.708 942.441 527.396C944.501 511.811 949.659 513.071 951.98 515.65C967.471 493.266 964.349 509.697 960.851 520.711C970.237 521.475 962.663 531.47 957.703 536.372C965.105 541.72 958.053 549.168 953.602 552.224Z" fill="#65AD6B"/>
<path d="M961.88 507.749C949.517 525.625 944.9 556.323 944.137 569.438L942.23 568.101C945.282 530.973 956.601 512.396 961.88 507.749Z" fill="#4C8551"/>
<path d="M923.706 556.247C918.051 560.881 921.787 566.419 924.362 568.61C939.064 578.43 943.358 562.566 943.667 553.406C944.414 539.316 939.886 540.906 937.528 543.462C935.287 526.678 930.408 527.096 928.248 529.403C922.327 514.843 917.655 517.365 916.058 520.446C895.428 502.699 902.59 517.81 908.749 527.584C899.859 530.694 909.707 538.453 915.742 541.944C909.927 548.988 918.628 554.415 923.706 556.247Z" fill="#66BD6E"/>
<path d="M904.488 515.301C920.955 529.477 933.158 558.017 937.201 570.514L938.711 568.739C926.401 533.582 910.766 518.465 904.488 515.301Z" fill="#4C8551"/>
</g>
<g clip-path="url(#clip21)">
<path d="M1247.3 530.991C1251.13 533.551 1249.12 537.249 1247.63 538.778C1238.99 545.825 1235.33 536.145 1234.58 530.424C1233.25 521.639 1236.2 522.361 1237.83 523.819C1238.22 513.165 1241.31 513.131 1242.81 514.445C1245.64 504.961 1248.73 506.258 1249.92 508.092C1261.81 495.717 1258.23 505.621 1254.95 512.121C1260.73 513.529 1255.01 518.99 1251.43 521.544C1255.51 525.605 1250.37 529.534 1247.3 530.991Z" fill="#5C9F62"/>
<path d="M1256.88 504.164C1247.4 514.049 1241.46 532.674 1239.68 540.752L1238.63 539.731C1244.22 516.952 1253.13 506.529 1256.88 504.164Z" fill="#4C8551"/>
<path d="M1225.92 553.259C1220.38 555.799 1222.23 561.037 1223.85 563.338C1233.64 574.322 1240.44 562.465 1242.61 555.164C1246.17 543.99 1242.19 544.318 1239.75 545.879C1241.47 531.911 1237.44 531.223 1235.22 532.625C1233.5 519.673 1229.2 520.72 1227.27 522.863C1214.36 504.26 1216.96 517.916 1219.88 527.069C1212.05 527.704 1218.37 536.011 1222.5 540.085C1216.33 544.529 1222.21 550.72 1225.92 553.259Z" fill="#65AD6B"/>
<path d="M1219.02 516.297C1229.32 531.154 1233.17 556.666 1233.8 567.565L1235.39 566.455C1232.85 535.598 1223.42 520.159 1219.02 516.297Z" fill="#4C8551"/>
<path d="M1250.83 556.603C1255.54 560.454 1252.43 565.057 1250.28 566.877C1238.03 575.039 1234.45 561.854 1234.2 554.242C1233.57 542.532 1237.35 543.853 1239.31 545.977C1241.18 532.028 1245.25 532.376 1247.05 534.293C1251.98 522.193 1255.87 524.289 1257.2 526.849C1274.4 512.1 1268.43 524.659 1263.29 532.782C1270.7 535.366 1262.5 541.814 1257.47 544.716C1262.31 550.57 1255.06 555.08 1250.83 556.603Z" fill="#66BD6E"/>
<path d="M1266.85 522.573C1253.12 534.355 1242.95 558.074 1239.58 568.46L1238.33 566.985C1248.58 537.767 1261.61 525.203 1266.85 522.573Z" fill="#4C8551"/>
</g>
<path d="M1329.71 507.889C1318.89 512.828 1309.89 553.239 1306.74 572.827C1307.12 575.618 1309 574.388 1309.9 573.425C1317.8 564.272 1323.35 552.307 1325.13 547.469C1335.04 513.398 1332.31 506.886 1329.71 507.889Z" fill="#FFCF57"/>
<path d="M1328.52 511.016C1325.93 532.462 1313.23 562.005 1307.2 574.095L1308.17 574.702C1327.01 534.77 1329.59 515.606 1328.52 511.016Z" fill="#FEB46D"/>
<path d="M1346.33 530.171C1335.91 531.266 1318.53 559.854 1311.13 574.011C1310.79 576.232 1312.69 575.76 1313.69 575.247C1322.63 570.218 1330.23 562.465 1332.92 559.216C1349.55 535.685 1348.79 530.048 1346.33 530.171Z" fill="#FFD773"/>
<path d="M1344.57 532.262C1337.21 547.972 1319.27 567.362 1311.23 575.093L1311.9 575.793C1337.57 549.998 1344.38 536.024 1344.57 532.262Z" fill="#FEB46D"/>
<path d="M1285.02 521.297C1280.45 530.819 1295.36 560.799 1303.39 574.599C1305.08 576.065 1305.68 574.182 1305.77 573.057C1306.25 562.734 1303.73 552.122 1302.4 548.107C1291.35 521.436 1286.21 519.12 1285.02 521.297Z" fill="#FFD56C"/>
<path d="M1285.85 523.912C1295.2 538.505 1302.08 564.11 1304.35 575.088L1305.29 574.877C1297.09 539.259 1288.91 526.059 1285.85 523.912Z" fill="#FEB46D"/>
<path d="M1274.83 542.368C1273.82 550.34 1291.74 568.297 1300.82 576.278C1302.39 576.923 1302.38 575.419 1302.17 574.586C1300.04 567.034 1295.69 560.006 1293.78 557.436C1279.43 540.921 1275.17 540.509 1274.83 542.368Z" fill="#FFCF57"/>
<path d="M1276.06 544.048C1286.29 552.279 1297.37 569.043 1301.63 576.396L1302.26 576.014C1287.83 552.359 1278.78 544.847 1276.06 544.048Z" fill="#FEB46D"/>
<path d="M1309.47 531.994C1303.79 536.662 1304.45 560.104 1305.5 571.241C1306.14 572.674 1307.07 571.662 1307.46 570.977C1310.78 564.58 1312.29 557.106 1312.63 554.168C1313.44 533.975 1310.86 530.971 1309.47 531.994Z" fill="#FFD773"/>
<path d="M1309.23 533.898C1310.88 545.934 1307.74 564.206 1305.96 571.838L1306.62 571.986C1311.86 546.978 1310.54 536.174 1309.23 533.898Z" fill="#FEB46D"/>
<g clip-path="url(#clip22)">
<path d="M335.785 577.884C303.098 583.898 307.829 604.734 314.281 614.4L571.043 615.259C575.86 591.889 559.287 589.483 550.398 591.201C528.722 600.137 526.744 592.061 528.464 586.905C525.023 558.38 508.107 557.549 500.078 560.699C489.756 568.948 481.441 564.136 478.574 560.699C472.381 531.486 460.223 523.61 454.919 523.324C437.028 517.825 411.337 545.95 400.728 560.699C391.782 566.886 384.672 563.277 382.234 560.699C365.719 534.923 354.135 541.081 350.408 547.382C343.527 571.783 337.792 577.884 335.785 577.884Z" fill="#026951"/>
</g>
<g clip-path="url(#clip23)">
<path d="M1012.97 579.34C1044.38 585.12 1039.83 605.144 1033.63 614.433L786.88 615.259C782.251 592.799 798.178 590.487 806.721 592.139C827.551 600.726 829.452 592.964 827.799 588.01C831.106 560.596 847.363 559.798 855.078 562.825C864.998 570.752 872.988 566.128 875.744 562.825C881.696 534.75 893.379 527.181 898.476 526.906C915.67 521.621 940.359 548.65 950.554 562.825C959.151 568.77 965.985 565.303 968.327 562.825C984.199 538.053 995.33 543.971 998.913 550.026C1005.53 573.477 1011.04 579.34 1012.97 579.34Z" fill="#026951"/>
</g>
<g clip-path="url(#clip24)">
<path d="M1264.75 581.514C1234.09 587.138 1238.53 606.62 1244.58 615.659L1485.44 616.462C1489.96 594.609 1474.42 592.36 1466.08 593.967C1445.74 602.322 1443.89 594.77 1445.5 589.95C1442.27 563.276 1426.4 562.5 1418.87 565.445C1409.19 573.158 1401.39 568.659 1398.7 565.445C1392.89 538.129 1381.49 530.765 1376.51 530.497C1359.73 525.355 1335.63 551.653 1325.68 565.445C1317.28 571.23 1310.61 567.856 1308.33 565.445C1292.83 541.343 1281.97 547.101 1278.47 552.993C1272.02 575.809 1266.64 581.514 1264.75 581.514Z" fill="#026951"/>
</g>
<g clip-path="url(#clip25)">
<path d="M975.032 571.204C935.823 578.39 941.498 603.285 949.236 614.834L1257.23 615.861C1263.01 587.938 1243.13 585.063 1232.47 587.116C1206.47 597.793 1204.09 588.143 1206.16 581.983C1202.03 547.901 1181.74 546.908 1172.11 550.672C1159.73 560.528 1149.75 554.779 1146.31 550.672C1138.88 515.769 1124.3 506.358 1117.94 506.016C1096.48 499.446 1065.66 533.049 1052.93 550.672C1042.2 558.064 1033.67 553.752 1030.75 550.672C1010.94 519.875 997.044 527.232 992.573 534.76C984.318 563.915 977.439 571.204 975.032 571.204Z" fill="#026951"/>
</g>
<g clip-path="url(#clip26)">
<path d="M1302.2 574.971C1337.51 581.454 1332.4 603.914 1325.43 614.333L1048.05 615.259C1042.85 590.068 1060.75 587.474 1070.36 589.327C1093.77 598.959 1095.91 590.253 1094.05 584.696C1097.77 553.948 1116.04 553.052 1124.71 556.448C1135.87 565.339 1144.85 560.153 1147.95 556.448C1154.64 524.959 1167.77 516.469 1173.5 516.16C1192.83 510.233 1220.58 540.549 1232.04 556.448C1241.7 563.116 1249.39 559.227 1252.02 556.448C1269.86 528.663 1282.37 535.301 1286.4 542.093C1293.83 568.395 1300.03 574.971 1302.2 574.971Z" fill="#026951"/>
</g>
<g clip-path="url(#clip27)">
<path d="M1090.45 574.971C1125.76 581.454 1120.65 603.914 1113.68 614.333L836.309 615.259C831.106 590.068 849.009 587.474 858.612 589.327C882.028 598.959 884.165 590.253 882.307 584.696C886.023 553.948 904.298 553.052 912.971 556.448C924.122 565.339 933.104 560.153 936.202 556.448C942.892 524.959 956.025 516.469 961.755 516.16C981.083 510.233 1008.84 540.549 1020.3 556.448C1029.96 563.116 1037.64 559.227 1040.27 556.448C1058.12 528.663 1070.63 535.301 1074.66 542.093C1082.09 568.395 1088.28 574.971 1090.45 574.971Z" fill="#026951"/>
</g>
<g clip-path="url(#clip28)">
<path d="M677.505 555.913C637.247 563.333 643.074 589.039 651.02 600.965L967.262 602.025C973.194 573.191 952.783 570.223 941.833 572.343C915.137 583.368 912.7 573.404 914.819 567.043C910.581 531.849 889.746 530.824 879.858 534.711C867.144 544.888 856.903 538.951 853.372 534.711C845.744 498.669 830.77 488.952 824.237 488.599C802.201 481.814 770.559 516.514 757.493 534.711C746.475 542.344 737.717 537.892 734.715 534.711C714.374 502.91 700.107 510.507 695.516 518.28C687.041 548.386 679.977 555.913 677.505 555.913Z" fill="#026951"/>
</g>
<g clip-path="url(#clip29)">
<path d="M546.322 576.786C512.136 583.074 517.084 604.857 523.831 614.962L792.372 615.861C797.41 591.428 780.077 588.913 770.779 590.709C748.11 600.051 746.041 591.608 747.84 586.218C744.241 556.396 726.549 555.527 718.152 558.821C707.356 567.444 698.66 562.414 695.661 558.821C689.184 528.28 676.469 520.046 670.921 519.747C652.209 513.998 625.34 543.401 614.244 558.821C604.888 565.288 597.451 561.516 594.902 558.821C577.629 531.873 565.514 538.311 561.616 544.898C554.419 570.409 548.421 576.786 546.322 576.786Z" fill="#026951"/>
</g>
<g clip-path="url(#clip30)">
<path d="M647.486 565.178C687.595 572.56 681.79 598.131 673.874 609.994L358.809 611.048C352.899 582.366 373.234 579.414 384.143 581.523C410.74 592.49 413.168 582.577 411.057 576.251C415.279 541.242 436.036 540.222 445.888 544.089C458.554 554.212 468.757 548.307 472.275 544.089C479.875 508.236 494.792 498.57 501.301 498.219C523.255 491.47 554.779 525.987 567.797 544.089C578.774 551.681 587.499 547.252 590.49 544.089C610.755 512.454 624.969 520.011 629.543 527.744C637.987 557.691 645.024 565.178 647.486 565.178Z" fill="#026951"/>
</g>
<g clip-path="url(#clip31)">
<path d="M1543.53 581.514C1574.19 587.138 1569.75 606.62 1563.7 615.659L1322.84 616.462C1318.32 594.609 1333.86 592.36 1342.2 593.967C1362.54 602.322 1364.39 594.77 1362.78 589.95C1366.01 563.276 1381.88 562.5 1389.41 565.445C1399.09 573.158 1406.89 568.659 1409.58 565.445C1415.39 538.129 1426.79 530.765 1431.77 530.497C1448.55 525.355 1472.65 551.653 1482.6 565.445C1491 571.23 1497.67 567.856 1499.95 565.445C1515.45 541.343 1526.31 547.101 1529.81 552.993C1536.26 575.809 1541.64 581.514 1543.53 581.514Z" fill="#026951"/>
</g>
<defs>
<clipPath id="clip0">
<rect width="711.997" height="559.521" fill="white" transform="translate(-9.47278 98.8494) rotate(-3.80382)"/>
</clipPath>
<clipPath id="clip1">
<rect width="88.427" height="82.4116" fill="white" transform="translate(899.745 138.836)"/>
</clipPath>
<clipPath id="clip2">
<rect width="46.3189" height="43.3112" fill="white" transform="translate(783.127 132.419) rotate(-4.77792)"/>
</clipPath>
<clipPath id="clip3">
<rect width="58.0758" height="54.3047" fill="white" transform="translate(1046.58 129.909) rotate(6.112)"/>
</clipPath>
<clipPath id="clip4">
<rect width="112.831" height="105.504" fill="white" transform="translate(1120.7 187.548) rotate(8.22051)"/>
</clipPath>
<clipPath id="clip5">
<rect width="110.602" height="103.57" fill="white" transform="translate(662.135 213.006) rotate(-7.2801)"/>
</clipPath>
<clipPath id="clip6">
<rect width="134.926" height="47.0371" fill="white" transform="matrix(-0.928057 -0.372438 -0.372526 0.928022 1480.62 558.495)"/>
</clipPath>
<clipPath id="clip7">
<rect width="25.7476" height="8.97779" fill="white" transform="translate(709.657 181.941) rotate(-6.24762)"/>
</clipPath>
<clipPath id="clip8">
<rect width="1112.86" height="371.754" fill="white" transform="translate(373.394 239.895)"/>
</clipPath>
<clipPath id="clip9">
<rect width="180.463" height="391.605" fill="white" transform="translate(857.637 126.805)"/>
</clipPath>
<clipPath id="clip10">
<rect width="206.931" height="234.001" fill="white" transform="translate(1136.75 337.947)"/>
</clipPath>
<clipPath id="clip11">
<rect width="110.684" height="241.821" fill="white" transform="translate(751.765 203.201)"/>
</clipPath>
<clipPath id="clip12">
<rect width="128.73" height="250.242" fill="white" transform="translate(1027.87 224.255)"/>
</clipPath>
<clipPath id="clip13">
<rect width="46.3189" height="43.3112" fill="white" transform="translate(621.832 146.03) rotate(-10.4448)"/>
</clipPath>
<clipPath id="clip14">
<rect width="152" height="150" fill="white" transform="matrix(-1 0 0 1 659 109)"/>
</clipPath>
<clipPath id="clip15">
<rect width="38.0238" height="13.2906" fill="white" transform="matrix(0.9759 -0.218219 0.217103 0.976149 531.047 247.784)"/>
</clipPath>
<clipPath id="clip16">
<rect width="124.52" height="170.237" fill="white" transform="matrix(-1 -9.62938e-09 -9.62938e-09 1 1489.26 453.444)"/>
</clipPath>
<clipPath id="clip17">
<rect width="34.79" height="30.8266" fill="white" transform="translate(701.086 163.214) rotate(-7.75771)"/>
</clipPath>
<clipPath id="clip18">
<rect width="124.52" height="170.237" fill="white" transform="translate(524.983 441.413)"/>
</clipPath>
<clipPath id="clip19">
<rect width="85.4193" height="116.7" fill="white" transform="matrix(-1 0 0 1 786.053 454.045)"/>
</clipPath>
<clipPath id="clip20">
<rect width="64.9668" height="89.0286" fill="white" transform="matrix(-1 0 0 1 965.314 487.13)"/>
</clipPath>
<clipPath id="clip21">
<rect width="54.139" height="73.99" fill="white" transform="translate(1216.16 499.161)"/>
</clipPath>
<clipPath id="clip22">
<rect width="262.273" height="92.6378" fill="white" transform="translate(309.63 522.621)"/>
</clipPath>
<clipPath id="clip23">
<rect width="252.047" height="89.0286" fill="white" transform="matrix(-1 0 0 1 1038.1 526.231)"/>
</clipPath>
<clipPath id="clip24">
<rect width="246.032" height="86.6224" fill="white" transform="translate(1240.22 529.84)"/>
</clipPath>
<clipPath id="clip25">
<rect width="314.608" height="110.684" fill="white" transform="translate(943.658 505.177)"/>
</clipPath>
<clipPath id="clip26">
<rect width="283.327" height="99.8564" fill="white" transform="matrix(-1 0 0 1 1330.45 515.403)"/>
</clipPath>
<clipPath id="clip27">
<rect width="283.327" height="99.8564" fill="white" transform="matrix(-1 0 0 1 1118.71 515.403)"/>
</clipPath>
<clipPath id="clip28">
<rect width="323.029" height="114.293" fill="white" transform="translate(645.292 487.732)"/>
</clipPath>
<clipPath id="clip29">
<rect width="274.304" height="96.8486" fill="white" transform="translate(518.968 519.012)"/>
</clipPath>
<clipPath id="clip30">
<rect width="321.826" height="113.692" fill="white" transform="matrix(-1 0 0 1 679.58 497.356)"/>
</clipPath>
<clipPath id="clip31">
<rect width="246.032" height="86.6224" fill="white" transform="matrix(-1 -5.07603e-09 -5.07603e-09 1 1568.06 529.84)"/>
</clipPath>
</defs>
</svg>
