<svg width="1715" height="1423" viewBox="0 0 1715 1423" fill="none" xmlns="http://www.w3.org/2000/svg">
<g clip-path="url(#clip0)">
<path d="M1882.8 1085.76C2135.42 1553.92 1883.47 1828.04 1725.91 1906.57C1066.29 2163.88 830.827 1705.37 795.55 1443.95C767.889 1030.02 560.544 562.203 460.329 380.037C1330.31 467.063 1771.13 886.778 1882.8 1085.76Z" fill="#19A367"/>
<path d="M2262.8 2680C2062.97 2570.39 1695.92 1961.63 1537.37 1670.95C1351.43 965.57 741.017 517.268 459.055 381.291C1124.52 565.529 1501.88 1271.88 1607.37 1602.03C1914.38 2224.99 2241.77 2573.07 2367.09 2669.24L2262.8 2680Z" fill="#037C60"/>
<path d="M699.542 722.776L1099.66 884.115L1228.26 971.947L1170.35 975.358C964.123 893.483 770.55 772.856 699.542 722.776Z" fill="#037C60"/>
<path d="M1051.54 1613.15C1197.76 1687.55 1461.43 1720.32 1574.99 1727.4L1639.16 1758.04L1613.21 1790.49C1357.68 1772.9 1132.29 1664.94 1051.54 1613.15Z" fill="#037C60"/>
<path d="M1123.17 589.06L1150.03 857.49L1211.3 919.715C1190.46 820.755 1143.87 658.044 1123.17 589.06Z" fill="#037C60"/>
<path d="M1036.78 1145.18L1151.43 1355.38L1223.01 1385.1C1171.79 1311.38 1077.52 1194.43 1036.78 1145.18Z" fill="#037C60"/>
<path d="M1102.89 1505.83L1306.03 1431.08L1382.28 1444.94C1301.59 1466.3 1162.4 1494.43 1102.89 1505.83Z" fill="#037C60"/>
<path d="M850.516 1408.98L1003.52 1349.08L1060.69 1359.47C999.971 1376.73 895.275 1399.67 850.516 1408.98Z" fill="#037C60"/>
<path d="M1681.74 1086.31L1535.87 1222.63L1526.66 1286.68C1575.54 1229.97 1650.42 1129.47 1681.74 1086.31Z" fill="#037C60"/>
<path d="M1836.46 1383.52L1721.69 1510.95L1713.26 1569.55C1751.96 1516.8 1811.52 1423.55 1836.46 1383.52Z" fill="#037C60"/>
<path d="M1694.92 1175L1738.76 1354.69L1712.89 1407.95C1703.89 1339.39 1697.16 1224.09 1694.92 1175Z" fill="#037C60"/>
<path d="M1569.93 839.564L1486.35 932.354L1480.22 975.026C1508.4 936.611 1551.76 868.713 1569.93 839.564Z" fill="#037C60"/>
<path d="M1254.92 651.871L1171.35 744.662L1165.21 787.334C1193.39 748.919 1236.76 681.019 1254.92 651.871Z" fill="#037C60"/>
<path d="M985.637 996.376L1318.74 1138.26L1355.92 1235.82C1241.08 1170.65 1061.22 1049.04 985.637 996.376Z" fill="#037C60"/>
<path d="M915.319 491.847L961.037 657.665L1005.79 686.241C982.147 627.071 935.624 531.992 915.319 491.847Z" fill="#037C60"/>
<path d="M776.119 893.903L945.533 865.995L990.288 894.571C926.741 897.893 821.032 895.51 776.119 893.903Z" fill="#037C60"/>
<path d="M1362.72 881.684L1475.4 1061.54L1475.81 1136.54C1439.38 1063.62 1385.24 936.251 1362.72 881.684Z" fill="#037C60"/>
<path d="M1812.74 1173.09L1608.26 1638.05L1644.97 1804.44C1703.63 1621.37 1781.26 1307.26 1812.74 1173.09Z" fill="#037C60"/>
<path d="M800.415 1247.79C973.277 1335.75 1284.98 1374.48 1419.23 1382.86L1495.09 1419.08L1464.41 1457.44C1162.33 1436.65 895.882 1309.01 800.415 1247.79Z" fill="#037C60"/>
<path d="M584.555 578.765C662.084 618.213 801.889 635.587 862.1 639.344L896.124 655.591L882.363 672.795C746.879 663.472 627.372 606.222 584.555 578.765Z" fill="#037C60"/>
<path d="M1420.36 750.249C1484.14 925.972 1472.43 1240.9 1458.6 1376.39L1484.08 1453.47L1529.82 1423.16C1558.89 1118.24 1468.96 847.502 1420.36 750.249Z" fill="#037C60"/>
</g>
<defs>
<clipPath id="clip0">
<rect width="1187.47" height="2970.83" fill="white" transform="translate(0.149124 833.128) rotate(-44.5553)"/>
</clipPath>
</defs>
</svg>
