<svg width="490" height="493" viewBox="0 0 490 493" fill="none" xmlns="http://www.w3.org/2000/svg">
<g clip-path="url(#clip0)">
<path d="M314.199 181.204C356.36 259.337 314.311 305.085 288.016 318.192C177.93 361.135 138.634 284.613 132.746 240.984C128.13 171.902 93.5254 93.8272 76.8004 63.4252C221.994 77.9492 295.564 147.996 314.199 181.204Z" fill="#19A367"/>
<path d="M377.619 447.271C344.268 428.977 283.011 327.381 256.55 278.869C225.518 161.146 123.645 86.3278 76.5879 63.6344C187.648 94.3822 250.626 212.267 268.233 267.366C319.469 371.334 374.109 429.426 395.025 445.475L377.619 447.271Z" fill="#037C60"/>
<path d="M116.723 120.625L183.5 147.552L204.963 162.21L195.297 162.779C160.88 149.115 128.574 128.983 116.723 120.625Z" fill="#037C60"/>
<path d="M175.469 269.221C199.872 281.638 243.877 287.107 262.829 288.289L273.538 293.403L269.207 298.818C226.562 295.884 188.946 277.864 175.469 269.221Z" fill="#037C60"/>
<path d="M205.476 263.276L224.474 283.904L234.019 286.569C225.993 279.386 211.646 268.047 205.476 263.276Z" fill="#037C60"/>
<path d="M187.424 98.3095L191.907 143.108L202.132 153.493C198.653 136.978 190.878 109.822 187.424 98.3095Z" fill="#037C60"/>
<path d="M173.005 191.121L192.139 226.202L204.085 231.162C195.538 218.86 179.804 199.342 173.005 191.121Z" fill="#037C60"/>
<path d="M184.038 251.311L217.941 238.836L230.667 241.15C217.201 244.714 193.97 249.409 184.038 251.311Z" fill="#037C60"/>
<path d="M166.644 293.364L200.547 280.889L213.273 283.203C199.807 286.767 176.576 291.462 166.644 293.364Z" fill="#037C60"/>
<path d="M141.92 235.147L167.455 225.151L176.997 226.885C166.863 229.765 149.39 233.593 141.92 235.147Z" fill="#037C60"/>
<path d="M280.644 181.296L256.299 204.048L254.762 214.737C262.921 205.273 275.416 188.499 280.644 181.296Z" fill="#037C60"/>
<path d="M306.466 230.899L287.312 252.166L285.905 261.946C292.364 253.142 302.304 237.58 306.466 230.899Z" fill="#037C60"/>
<path d="M282.844 196.099L290.161 226.087L285.843 234.975C284.341 223.535 283.218 204.291 282.844 196.099Z" fill="#037C60"/>
<path d="M261.983 140.117L248.036 155.602L247.011 162.724C251.714 156.313 258.952 144.981 261.983 140.117Z" fill="#037C60"/>
<path d="M209.412 108.792L195.464 124.278L194.439 131.4C199.142 124.989 206.38 113.657 209.412 108.792Z" fill="#037C60"/>
<path d="M164.47 166.287L220.063 189.966L226.268 206.248C207.101 195.373 177.084 175.076 164.47 166.287Z" fill="#037C60"/>
<path d="M152.735 82.0856L160.365 109.759L167.834 114.528C163.888 104.653 156.123 88.7854 152.735 82.0856Z" fill="#037C60"/>
<path d="M129.503 149.185L157.777 144.528L165.246 149.297C154.641 149.851 136.999 149.453 129.503 149.185Z" fill="#037C60"/>
<path d="M227.403 147.146L246.207 177.163L246.276 189.68C240.196 177.509 231.161 156.253 227.403 147.146Z" fill="#037C60"/>
<path d="M302.506 195.779L268.381 273.378L274.508 301.146C284.298 270.594 297.253 218.171 302.506 195.779Z" fill="#037C60"/>
<path d="M133.558 208.247C162.407 222.926 214.429 229.39 236.833 230.788L249.494 236.833L244.373 243.235C193.959 239.766 149.491 218.464 133.558 208.247Z" fill="#037C60"/>
<path d="M97.5327 96.5913C110.472 103.175 133.804 106.074 143.853 106.701L149.531 109.413L147.235 112.284C124.623 110.728 104.679 101.174 97.5327 96.5913Z" fill="#037C60"/>
<path d="M237.021 125.211C247.667 154.538 245.712 207.096 243.404 229.709L247.656 242.573L255.291 237.514C260.142 186.625 245.132 141.441 237.021 125.211Z" fill="#037C60"/>
</g>
<defs>
<clipPath id="clip0">
<rect width="198.18" height="495.808" fill="white" transform="translate(0 139.042) rotate(-44.5553)"/>
</clipPath>
</defs>
</svg>
