<svg width="1920" height="1122" viewBox="0 0 1920 1122" fill="none" xmlns="http://www.w3.org/2000/svg">
<mask id="mask0" mask-type="alpha" maskUnits="userSpaceOnUse" x="-487" y="241" width="2898" height="787">
<rect x="-486.668" y="241.458" width="2897.5" height="786.024" fill="#C4C4C4"/>
</mask>
<g mask="url(#mask0)">
<ellipse cx="961.568" cy="1203.7" rx="1667.09" ry="949.907" fill="#6ABB71"/>
<ellipse cx="961.568" cy="1391.72" rx="1667.09" ry="949.907" fill="#5A9A60"/>
</g>
<g clip-path="url(#clip0)">
<path d="M-522.886 934.13L-584.72 1033.76L559.379 1044.02L567.171 1001.14L543.185 906.922L456.865 773.516L395.201 792.225L282.774 593.212L250.099 601.928L208.622 504.428L65.5394 169.736L2.48524 204.928L-33.9945 321.293L-45.1299 296.6L-247.482 557.665L-284.43 658.779L-396.298 782.518L-436.598 880.482L-522.886 934.13Z" fill="#C1755E"/>
<path d="M-456.585 976.153L-435.976 879.869L-397.534 783.128L-285.06 660.328L-249.655 559.825L-45.4384 296.597L-33.9979 321.605L13.4599 246.115L2.78705 205.553L66.4508 170.679L251.028 601.314L283.685 594.155L394.292 790.662L446.983 809.834L445.765 935.563L368.724 891.254L445.299 983.488L455.779 1043.97L-324.982 1036.54L-275.841 977.873L-98.3531 998.234L-64.0629 949.387C-39.0393 947.136 11.7492 942.639 14.698 942.667L160.401 944.049L233.957 903.67L237.416 863.864L222.047 863.718L128.881 834.199L32.6968 861.918L114.446 801.069L170.583 781.684L200.091 781.966L179.93 768.701L200.52 737.774L115.536 688.415L119.412 605.661L111.914 618.042L45.0581 538.351L3.98613 652.496L-83.3414 718.266L-108.263 625.282L-165.374 681.385L-373.558 783.357L-403.393 880.178L-456.585 976.153Z" fill="#026951"/>
<path d="M444.099 980.365L455.792 1042.72L560.304 1043.72L568.69 1003.33L542.568 907.227L456.56 773.2L394.293 790.662L282.462 593.521L251.048 599.445L34.0599 213.943L13.4601 246.115L41.1729 368.382L40.3637 451.785L97.2758 542.582L120.714 598.204L143.843 559.21L207.765 688.046L208.718 589.706L241.025 618.648L285.361 611.597L297.524 688.901L245.382 740.07L256.006 785.611L201.905 785.096L244.73 807.288L238.669 861.385L295.807 865.664L296.652 778.525L323.048 719.645L323.156 708.44L378.838 799.228L445.76 809.199L444.555 933.683L368.098 892.496L444.099 980.365Z" fill="#004E3C"/>
</g>
<g clip-path="url(#clip1)">
<path d="M947.877 377.086L927.55 332.453H1044.87L1025.7 377.086H947.877Z" fill="#FEB46D"/>
<path d="M910.707 338.748L942.65 236.321H1041.38L1061.71 338.748H910.707Z" fill="#FFD059"/>
<path d="M1061.71 338.175L986.789 266.648L911.869 338.175H1061.71Z" fill="#FFDC85"/>
<path d="M1041.96 236.321L986.209 266.648L943.231 236.321H1041.96Z" fill="#DEC689"/>
</g>
<g clip-path="url(#clip2)">
<path d="M737.079 297.46L724.514 274.971L785.753 269.853L777.702 294.064L737.079 297.46Z" fill="#FEB46D"/>
<path d="M715.998 279.003L728.189 223.966L779.726 219.658L794.82 272.414L715.998 279.003Z" fill="#FFD059"/>
<path d="M794.795 272.115L752.556 237.923L716.58 278.652L794.795 272.115Z" fill="#FFDC85"/>
<path d="M780.029 219.633L752.253 237.949L728.492 223.941L780.029 219.633Z" fill="#DEC689"/>
</g>
<g clip-path="url(#clip3)">
<path d="M1175.91 315.901L1165.77 285.236L1242.38 293.44L1226.74 321.343L1175.91 315.901Z" fill="#FEB46D"/>
<path d="M1154.33 288.182L1182.38 223.306L1246.85 230.21L1252.94 298.742L1154.33 288.182Z" fill="#FFD059"/>
<path d="M1252.98 298.367L1209.07 246.263L1155.13 287.889L1252.98 298.367Z" fill="#FFDC85"/>
<path d="M1247.23 230.251L1208.69 246.223L1182.76 223.347L1247.23 230.251Z" fill="#DEC689"/>
</g>
<g clip-path="url(#clip4)">
<path d="M1309.28 504.663L1291.78 444.402L1439.94 465.806L1407.56 518.861L1309.28 504.663Z" fill="#FEB46D"/>
<path d="M1269.36 449.305L1328.45 325.353L1453.13 343.366L1460.05 476.854L1269.36 449.305Z" fill="#FFD059"/>
<path d="M1460.16 476.129L1378.64 371.832L1270.93 448.792L1460.16 476.129Z" fill="#FFDC85"/>
<path d="M1453.87 343.472L1377.9 371.726L1329.18 325.459L1453.87 343.472Z" fill="#DEC689"/>
</g>
<g clip-path="url(#clip5)">
<path d="M573.386 532.596L541.058 480.179L686.613 461.584L669.942 520.261L573.386 532.596Z" fill="#FEB46D"/>
<path d="M521.164 490.695L544.483 357.946L666.98 342.297L708.512 466.761L521.164 490.695Z" fill="#FFD059"/>
<path d="M708.42 466.048L604.076 388.756L522.514 489.797L708.42 466.048Z" fill="#FFDC85"/>
<path d="M667.701 342.205L603.356 388.848L545.204 357.854L667.701 342.205Z" fill="#DEC689"/>
</g>
<path d="M1853.34 675.082C1929.16 715.258 1951.1 685.035 1952.6 664.902L1979.8 580.5L1916.93 455.358L1575.81 426.372C1586.28 455.743 1563.38 505.415 1550.62 526.58C1498.95 603.328 1529.27 616.789 1550.89 613.923C1588.42 607.931 1598.96 625.203 1599.55 634.589C1604.04 680.356 1622.33 680.812 1630.91 675.325C1676.92 640.03 1701.8 664.305 1708.49 680.857C1715.42 732.644 1742.68 742.314 1755.46 740.678L1853.34 675.082Z" fill="#0C504C"/>
<path d="M1915.1 591.652C1925.28 642.829 1948.72 649.548 1959.18 646.51L2053.32 495.836L1471 256.003C1473.19 297.804 1449.37 336.122 1437.19 350.057C1391.87 409.563 1428.92 424.22 1453.12 424.111C1487.34 404.752 1494.75 420.194 1494.18 430.336C1486.64 487.942 1514.81 494.339 1529.83 490.337C1587.45 462.969 1595.51 486.663 1592.34 501.931C1536.15 598.689 1583.53 611.584 1614.25 605.936C1655.83 585.717 1674.64 600.018 1678.84 609.696C1741.27 693.034 1781.09 639.416 1793.2 602.189C1820.37 641.641 1847.6 626.952 1857.82 614.681C1891.48 566.168 1910.03 579.114 1915.1 591.652Z" fill="#037C60"/>
<path d="M1882.87 661.455C1869.23 660.644 1838.53 685.406 1824.89 697.888C1816.1 754.707 1817.27 874.656 1819.1 933.441L1827.2 1000.43L1721.42 955.512C1708.39 918.073 1765.2 687.493 1795.23 576.883C1759.02 550.538 1700.72 486.485 1676.1 457.752C1655.9 444.188 1610.74 353.148 1590.68 309.323L1604.25 303.869L1632.2 364.339L1642.14 308.746L1649.73 323.185C1644.97 346.087 1651.31 379.102 1655.08 392.747C1706.74 468.521 1778.43 527.379 1807.82 547.337C1805.62 538.427 1836.33 464.741 1851.96 429.011L1884.72 434.202L1865.77 502.167C1901.88 506.536 1949.74 475.106 1969.16 458.845L1980.97 475.08C1971.71 485.103 1938.96 500.433 1923.73 506.845C1937.32 526.57 1965.35 530.336 1977.68 529.754L1974.08 538.196L1947.51 533.141C1933.02 531.972 1915.38 521.574 1908.37 516.52C1895.72 525.105 1870.33 528.611 1859.22 529.29C1851.31 547.863 1837.88 622.413 1832.15 657.362C1837.93 650.843 1867.03 646.836 1880.86 645.648L1882.87 661.455Z" fill="#C1755E"/>
<path d="M1766.37 974.601C1757.31 933.707 1817.76 627.625 1849.11 479.7L1872.52 479.001L1865.68 502.381C1884.17 508.232 1925.45 488.134 1943.79 477.354L1950.46 493.955L1925.41 505.845C1925.3 510.803 1941.09 520.847 1949 525.249L1946.28 531.608C1935.78 531.65 1916.88 520.994 1908.74 515.661C1895.89 524.721 1869.93 528.59 1858.55 529.39L1831.8 658.206C1837.71 650.199 1867.57 646.067 1881.76 645.006L1883.52 661.395C1866.55 663.703 1837.43 687.504 1824.99 699.119C1819.06 734.149 1818.24 810.771 1818.57 844.702C1814.86 906.208 1823.48 974.446 1828.25 1000.88L1766.37 974.601Z" fill="#9B604E"/>
<path d="M1950.17 518.075C1917.12 602.73 1963.96 615.727 1991.51 611.644C2083.74 571.059 2061.81 508.164 2073.52 439.616C2085.23 371.066 1948.02 358.901 1984.39 314.537C2020.78 270.173 1900.88 196.825 1875.98 243.57C1856.06 280.966 1824.31 257.35 1810.93 240.867C1790.79 217.775 1750.28 186.198 1749.38 244.632C1748.48 303.065 1693.16 265.2 1665.61 238.963C1594.2 197.422 1450.89 127.835 1448.89 181.813C1446.89 235.792 1419.91 243.026 1406.67 239.895C1389.9 235.268 1352.19 239.938 1335.47 295.639C1318.74 351.34 1374.33 338.313 1404.22 324.837C1430.26 312.967 1451.03 335.165 1458.16 347.747C1477.74 470.705 1534.01 427.729 1559.7 390.871C1604.54 290.284 1652.26 327.997 1670.51 359.427C1677.97 426.394 1704.93 427.211 1717.48 419.249C1741.19 396.422 1760.15 407.048 1766.66 415.214C1788.69 551.178 1861.23 498.162 1894.75 454.659C1943.02 449.24 1951.82 494.678 1950.17 518.075Z" fill="#19A367"/>
<g clip-path="url(#clip6)">
<path d="M1863.69 989.048C1888.41 1004.59 1877.82 1019.81 1869.43 1025.48L1659.77 942.137C1663.39 921.751 1677.68 925.238 1684.38 929.531C1699.16 943.817 1703.39 937.963 1703.65 933.251C1715.67 911.418 1729.74 916.286 1735.27 921.449C1741.02 931.466 1749.35 930.315 1752.8 928.487C1767.29 907.001 1779.75 904.641 1784.17 906.146C1800.54 907.576 1812.4 938.62 1816.29 953.963C1821.58 961.87 1828.55 961.293 1831.37 960.016C1853.16 944.674 1860.62 953.421 1861.62 959.713C1859.35 981.604 1862.06 988.391 1863.69 989.048Z" fill="#026951"/>
</g>
<g clip-path="url(#clip7)">
<path d="M591.378 318.564C586.038 320.151 587.202 323.493 588.452 324.966L631.266 320.422C631.648 316.488 628.842 316.395 627.391 316.84C623.939 318.706 623.464 317.413 623.658 316.533C622.57 311.902 619.736 312.074 618.454 312.739C616.882 314.284 615.41 313.644 614.87 313.131C613.311 308.437 611.143 307.363 610.254 307.413C607.172 306.834 603.396 311.931 601.894 314.552C600.514 315.733 599.264 315.269 598.811 314.889C595.594 310.949 593.774 312.174 593.266 313.278C592.559 317.419 591.713 318.528 591.378 318.564Z" fill="#026951"/>
</g>
<g clip-path="url(#clip8)">
<path d="M245.604 843.926C231.962 887.125 139.5 992.661 94.9741 1040.03L88.7216 1046.28H1842.85L1822.39 1009.9C1745.99 886.216 1699.61 840.893 1685.97 833.694C1671.41 819.143 1598.81 798.073 1564.33 789.358C1515.22 700.23 1493.84 678.706 1489.29 679.085C1365.61 673.629 1299.83 647.254 1282.39 634.749C1261.48 615.65 1203.95 559.339 1177.8 533.57C1167.8 527.204 1066.77 507.424 1017.51 498.329C956.881 510.834 834.027 535.389 827.661 533.57C821.295 531.752 679.495 581.318 609.39 606.328L571.875 634.749C520.944 756.617 495.328 789.358 488.886 790.494C425.223 774.124 300.172 819.294 245.604 843.926Z" fill="#C1755E"/>
<path d="M1273.87 642.99L1213.33 794.757L1239.76 841.936L1273.87 642.99Z" fill="#995C4A"/>
<path d="M1214.18 856.999L1489.89 680.446L1362.27 738.697L1214.18 856.999Z" fill="#995C4A"/>
<path d="M948.899 854.935L920.949 855.756L1164.4 540.554L1173.88 535.512L948.899 854.935Z" fill="#995C4A"/>
<path d="M1167.86 762.358C1046.67 733.483 1012.4 576.013 1010.41 500.887C877.397 525.67 833.156 532.244 827.661 532.434C823.114 531.525 680.631 580.181 609.958 604.623L571.306 635.317C553.117 687.156 509.917 759.231 490.591 788.789L436.592 824.6L296.193 891.673L114.3 1044.86H1425.35C1193.44 1023.72 1186.05 958.935 1211.34 929.188C1247.34 885.609 1289.05 791.233 1167.86 762.358Z" fill="#19A367"/>
<path d="M819.704 554.602L1009.55 501.171C997.732 503.9 880.335 523.908 823.114 533.57C814.474 534.026 677.031 581.129 609.39 604.623L571.306 634.749C563.121 668.399 514.465 751.084 491.16 788.221L433.75 826.305L293.92 892.241L220.026 956.472L114.869 1044.01H792.419C596.884 1041.17 495.139 923.504 654.295 929.188C781.62 933.736 900.608 906.451 944.187 892.241C1149.73 810.39 1029.83 767.19 944.187 755.821C641.79 780.832 646.905 724.937 687.263 693.864L819.704 554.602Z" fill="#158655"/>
<path d="M1091.16 995.613C1092.01 983.606 1089.94 958.17 1074.92 952.488C1082.03 953.672 1098.16 961.417 1105.88 982.928C1107.57 969.907 1115.93 942.747 1135.82 938.282C1128.55 947.584 1115.63 969.535 1122.12 982.928C1128.55 973.628 1143.64 956.039 1152.57 960.098C1143.43 967.201 1126.79 984.248 1133.29 995.613C1139.21 989.524 1152.87 978.464 1160.18 982.928C1154.6 984.451 1144.35 989.93 1148 999.671" stroke="#026951" stroke-width="6"/>
<path d="M620.163 988.176C620.784 979.393 619.27 960.788 608.254 956.631C613.464 957.497 625.3 963.163 630.956 978.899C632.197 969.373 638.325 949.507 652.914 946.24C647.58 953.044 638.102 969.101 642.865 978.899C647.58 972.095 658.646 959.23 665.197 962.198C658.497 967.394 646.29 979.864 651.053 988.176C655.396 983.723 665.42 975.632 670.779 978.899C666.685 980.011 659.167 984.02 661.847 991.145" stroke="#026951" stroke-width="6"/>
<path d="M907.455 729.067C908.414 715.505 906.076 686.772 889.05 680.353C897.103 681.69 915.394 690.44 924.137 714.74C926.054 700.03 935.525 669.349 958.072 664.306C949.828 674.813 935.18 699.61 942.542 714.74C949.828 704.233 966.929 684.365 977.053 688.95C966.7 696.974 947.833 716.23 955.196 729.067C961.907 722.19 977.398 709.696 985.681 714.74C979.353 716.459 967.735 722.649 971.876 733.653" stroke="#026951" stroke-width="6"/>
<path d="M859.33 578.795C859.736 573.013 858.746 560.767 851.535 558.031C854.945 558.601 862.691 562.331 866.394 572.688C867.207 566.418 871.218 553.341 880.768 551.191C877.275 555.67 871.071 566.239 874.19 572.688C877.275 568.209 884.519 559.742 888.807 561.695C884.421 565.115 876.431 573.323 879.549 578.795C882.391 575.864 888.953 570.538 892.46 572.688C889.781 573.42 884.86 576.059 886.614 580.749" stroke="#026951" stroke-width="6"/>
<path d="M778.02 842.958C778.454 836.732 777.395 823.543 769.683 820.597C773.331 821.211 781.616 825.227 785.575 836.381C786.444 829.629 790.733 815.547 800.947 813.231C797.212 818.054 790.577 829.436 793.912 836.381C797.212 831.558 804.958 822.439 809.544 824.543C804.854 828.226 796.309 837.065 799.644 842.958C802.683 839.801 809.7 834.066 813.451 836.381C810.585 837.17 805.323 840.012 807.199 845.062" stroke="#19A367" stroke-width="6"/>
<path d="M625.685 646.855C626.118 640.629 625.059 627.44 617.348 624.493C620.995 625.108 629.28 629.123 633.24 640.278C634.108 633.526 638.398 619.442 648.61 617.127C644.876 621.95 638.242 633.333 641.576 640.278C644.876 635.455 652.622 626.335 657.208 628.44C652.519 632.123 643.973 640.962 647.308 646.855C650.347 643.698 657.364 637.963 661.115 640.278C658.25 641.067 652.987 643.908 654.863 648.959" stroke="#19A367" stroke-width="6"/>
<path d="M1662.69 961.125L1562.62 789.358C1612.81 789.358 1682.1 828.159 1710.48 847.56C1728.4 862.324 1822.48 997.561 1867.29 1063.33L1662.69 961.125Z" fill="#995C4A"/>
<path d="M1293.3 1127.06L1268.48 1114.2L1634.46 957.09L1645.19 957.293L1293.3 1127.06Z" fill="#995C4A"/>
</g>
<g clip-path="url(#clip9)">
<path d="M841.288 215.771C856.037 333.828 924.253 396.136 956.517 412.532H1017.97C1053.62 412.532 1118.86 281.358 1147.03 215.771C1133.51 352.274 1066.62 449.938 1034.87 481.706L1044.09 610.83C1041.63 642.804 1066.62 806.569 1079.43 884.45C1054.85 854.939 1003.63 689.74 981.099 610.83C954.058 707.981 907.352 833.724 887.379 884.45L927.326 610.83C934.7 566.559 935.519 506.301 935.007 481.706C840.366 352.582 833.094 250.614 841.288 215.771Z" fill="#9A4040"/>
<path d="M986.842 427.106C933.885 427.915 888.305 355.145 872.135 318.658C893.156 365.779 934.457 399.805 952.48 410.928H1025.25C1041.82 409.31 1080.33 348.741 1097.51 318.658C1067.19 410.675 1011.1 429.297 986.842 427.106Z" fill="#783232"/>
<path d="M989.703 427.406C1019.4 427.406 1043.48 400.84 1043.48 368.07C1043.48 335.3 1019.4 308.734 989.703 308.734C960.004 308.734 935.929 335.3 935.929 368.07C935.929 400.84 960.004 427.406 989.703 427.406Z" fill="#9A4040"/>
<path d="M941.786 485.867L934.96 481.186L932.331 573.748L941.786 485.867Z" fill="#783232"/>
<path d="M997.299 618.072L981.181 610.32C983.142 623.184 1023.57 746.541 1043.54 806.61L997.299 618.072Z" fill="#783232"/>
</g>
<g clip-path="url(#clip10)">
<path d="M1367.8 975.801C1355.63 857.916 1411.79 742.065 1441.39 698.874C1406.47 711.882 1342.94 744.944 1315.54 759.849C1362.63 701.313 1448.15 660.935 1485.03 648.062C1457.4 607.413 1493.14 590.475 1514.46 587.088C1563.99 591.966 1548.97 629.77 1535.27 648.062C1586.02 620.421 1645.39 599.96 1668.74 593.185L1526.64 690.744L1492.13 730.378C1532.73 718.996 1537.81 731.733 1535.27 739.524C1517 835.05 1480.29 869.094 1464.22 874.176C1482.49 868.078 1490.44 795.417 1492.13 759.849L1441.39 780.174C1415 806.596 1381.34 921.602 1367.8 975.801Z" fill="#9A4040"/>
<path d="M1436.06 669.657C1451.28 663.763 1486.05 659.41 1501.52 657.971L1486.81 647.3C1473.21 651.365 1447.31 663.899 1436.06 669.657Z" fill="#783232"/>
<path d="M1605.55 615.543C1570.64 638.916 1535.86 653.228 1522.84 657.463V652.128L1537.55 647.3C1546.94 639.983 1586.8 623.08 1605.55 615.543Z" fill="#783232"/>
<path d="M1511.42 659.749C1532.16 659.749 1548.97 641.095 1548.97 618.083C1548.97 595.072 1532.16 576.418 1511.42 576.418C1490.68 576.418 1473.87 595.072 1473.87 618.083C1473.87 641.095 1490.68 659.749 1511.42 659.749Z" fill="#9A4040"/>
<path d="M1491.97 744.902C1493.18 746.218 1492.55 755.705 1492.09 760.285L1441.8 779.86C1451.96 769.365 1479.48 752.182 1491.97 744.902Z" fill="#783232"/>
<path d="M1503.44 680.35C1485.97 683.593 1454.85 694.029 1441.47 698.841C1439.04 700.868 1431.48 713.871 1428.01 720.119L1503.44 680.35Z" fill="#783232"/>
</g>
<path d="M604.715 511.835L503.419 632.168L475.815 641.456C439.226 645.836 364.395 595.011 331.552 569.05C356.377 612.248 431.805 663.865 466.416 684.273L494.895 786.716C477.409 826.703 482.167 844.202 486.731 847.954C515.555 874.738 553.675 888.876 569.133 892.598C518.674 862.783 513.952 843.421 517.897 837.467L533.515 786.609C553.269 798.203 634.513 902.323 672.665 952.933L584.915 789.142L524.296 664.798L604.715 511.835Z" fill="#9A4040"/>
<path d="M565.396 559.081C532.993 619.652 501.154 639.991 489.284 642.589L502.86 632.123L565.396 559.081Z" fill="#783232"/>
<path d="M410.947 621.434C440.501 644.593 468.513 646.523 478.824 644.593L463.691 641.03C454.255 641.743 424.597 628.263 410.947 621.434Z" fill="#783232"/>
<path d="M489.115 643.064C508.38 636.581 518.244 614.204 511.146 593.082C504.048 571.96 482.676 560.093 463.411 566.575C444.145 573.058 434.281 595.435 441.379 616.557C448.477 637.679 469.849 649.546 489.115 643.064Z" fill="#9A4040"/>
<path d="M536.634 778.357L532.698 787.296C543.048 790.244 605.877 866.817 635.997 904.735C626.912 881.468 565.969 810.788 536.634 778.357Z" fill="#783232"/>
<path d="M499.744 774.644C498.854 775.713 496.257 783.254 495.07 786.892L466.584 684.455C476.376 701.557 492.771 751.707 499.744 774.644Z" fill="#783232"/>
<g clip-path="url(#clip11)">
<path d="M698.974 759.214C686.912 678.286 711.035 530.828 724.604 467.215H770.589C795.315 642.845 791.445 735.059 786.42 759.214C769.533 645.572 748.225 601.376 739.681 593.484C724.604 611.851 706.261 711.622 698.974 759.214Z" fill="#9A4040"/>
<path d="M686.222 346.261C684.649 427.286 713.384 480.427 727.947 496.87L747.834 501.014L754.638 468.283L734.751 464.138C717.717 450.267 695.301 379.774 686.222 346.261Z" fill="#9A4040"/>
<path d="M815.804 628.485C818.931 541.709 791.124 485.113 776.829 467.662L756.959 463.436L749.508 498.556L769.377 502.783C786.2 517.454 807.338 592.697 815.804 628.485Z" fill="#9A4040"/>
<path d="M776.993 467.779C770.205 472.104 756.68 470.782 750.767 469.581L755.909 462.887C762.166 464.518 775.141 467.779 776.993 467.779Z" fill="#783232"/>
<path d="M699.086 388.484C706.511 442.069 731.319 465.047 742.796 469.838L725.432 449.228C722.558 447.059 706.67 407.828 699.086 388.484Z" fill="#783232"/>
<path d="M753.883 472.979C772.067 472.979 786.808 456.701 786.808 436.621C786.808 416.54 772.067 400.262 753.883 400.262C735.699 400.262 720.958 416.54 720.958 436.621C720.958 456.701 735.699 472.979 753.883 472.979Z" fill="#9A4040"/>
<path d="M768.012 500.441C770.716 502.801 775.267 509.911 777.204 513.171C780.934 535.08 786.453 614.741 788.747 651.833L768.012 500.441Z" fill="#783232"/>
<path d="M734.036 588.12L739.996 593.62C727.757 608.368 710.905 688.336 704.008 726.477C707.042 667.527 725.291 609.676 734.036 588.12Z" fill="#783232"/>
</g>
<g clip-path="url(#clip12)">
<path d="M1182.18 809.367C1167.91 713.611 1196.45 539.133 1212.5 463.863H1266.91C1296.16 671.675 1291.58 780.787 1285.64 809.367C1265.66 674.901 1240.45 622.609 1230.34 613.271C1212.5 635.003 1190.8 753.057 1182.18 809.367Z" fill="#9A4040"/>
<path d="M1163.01 639.818C1161.15 543.946 1195.15 481.067 1212.38 461.612L1235.91 456.708L1243.96 495.438L1220.43 500.342C1200.28 516.755 1173.75 600.165 1163.01 639.818Z" fill="#9A4040"/>
<path d="M1312.81 652.856C1316.51 550.18 1283.61 483.213 1266.7 462.565L1243.19 457.564L1234.37 499.119L1257.88 504.121C1277.78 521.481 1302.79 610.511 1312.81 652.856Z" fill="#9A4040"/>
<path d="M1212.72 461.391C1217.75 466.401 1230.41 467.653 1236.11 467.653C1248.59 469.391 1261.76 465.037 1266.8 462.644C1264.98 462.042 1261.01 461.558 1259.25 461.391L1220.52 460.389L1212.72 461.391Z" fill="#783232"/>
<path d="M1278.09 425.244C1278.09 449.004 1260.65 468.265 1239.14 468.265C1217.62 468.265 1200.18 449.004 1200.18 425.244C1200.18 401.485 1217.62 382.223 1239.14 382.223C1260.65 382.223 1278.09 401.485 1278.09 425.244Z" fill="#9A4040"/>
<path d="M1237.89 605.994L1230.03 613.613C1247.03 633.126 1272.37 740.537 1282.92 791.804C1276.91 712.317 1250.4 634.811 1237.89 605.994Z" fill="#783232"/>
<path d="M1261.19 495.748C1266.66 507.772 1273.11 526.912 1275.64 534.979C1276.86 534.979 1287.31 564.699 1292.38 579.559C1287.51 540.43 1269.55 507.382 1261.19 495.748Z" fill="#783232"/>
<path d="M1214.25 495.936C1208.52 507.889 1201.69 526.96 1198.99 535C1197.77 534.978 1186.71 564.582 1181.34 579.386C1186.96 540.247 1205.62 507.444 1214.25 495.936Z" fill="#783232"/>
</g>
<g clip-path="url(#clip13)">
<path d="M468.569 317.832L453.846 296.694L514.28 285.554L508.659 310.442L468.569 317.832Z" fill="#FEB46D"/>
<path d="M445.769 301.547L452.465 245.575L503.325 236.2L523.555 287.208L445.769 301.547Z" fill="#FFD059"/>
<path d="M523.501 286.912L478.092 257.058L446.313 301.141L523.501 286.912Z" fill="#FFDC85"/>
<path d="M503.625 236.145L477.793 257.113L452.764 245.52L503.625 236.145Z" fill="#DEC689"/>
</g>
<g clip-path="url(#clip14)">
<path d="M307.377 347.131C284.465 354.874 279.738 345.443 280.238 339.76L276.517 314.98L299.695 282.95L395.872 290.44C391.622 298.153 395.729 313.051 398.314 319.536C409.188 343.299 400.143 345.669 394.262 343.883C384.1 340.498 380.381 344.834 379.792 347.425C376.46 359.983 371.353 359.275 369.216 357.353C358.03 345.41 350.005 351.043 347.391 355.354C343.109 369.48 335.086 370.932 331.608 369.893L307.377 347.131Z" fill="#0C504C"/>
<path d="M294.001 321.044C288.84 334.851 282.015 335.655 279.246 334.33L259.927 288.012L432.77 247.712C430.26 259.27 435.138 271.043 437.89 275.485C447.785 294.15 436.813 296.546 430.091 295.411C421.455 288.449 418.691 292.418 418.388 295.272C417.864 311.682 409.74 312.18 405.744 310.378C390.968 300.115 387.647 306.355 387.834 310.757C399.056 340.307 385.293 341.74 377.009 338.763C366.365 331.225 360.485 334.355 358.875 336.862C337.721 357.253 329.089 340.482 327.417 329.547C318.067 339.31 311.162 333.97 308.878 330.081C301.729 315.015 295.981 317.779 294.001 321.044Z" fill="#037C60"/>
<path d="M299.785 341.982C303.615 342.379 311.023 350.686 314.249 354.79C314.106 371.037 308.321 404.435 305.137 420.746L299.835 439.058L331.293 431.361C336.622 421.515 331.321 354.616 328.004 322.397C339.273 316.703 358.399 301.502 366.554 294.613C372.789 291.752 389.492 268.424 397.064 257.118L393.54 254.978L383.014 270.566L382.782 254.608L380.014 258.288C380.294 264.892 377.028 273.81 375.36 277.444C357.544 296.217 334.929 309.359 325.849 313.583C326.867 311.198 321.68 289.246 318.961 278.568L309.615 278.52L311.79 298.34C301.551 297.91 289.673 286.96 285.014 281.538L280.989 285.526C283.108 288.744 291.519 294.515 295.46 296.998C290.785 301.879 282.817 301.649 279.417 300.924L280.033 303.443L287.653 303.246C291.734 303.582 297.112 301.487 299.292 300.398C302.417 303.369 309.318 305.506 312.379 306.203C313.732 311.744 314.072 333.148 314.074 343.156C312.765 341.074 304.854 338.628 301.063 337.665L299.785 341.982Z" fill="#C1755E"/>
<path d="M317.924 434.632C322.305 423.641 319.431 335.52 317.445 292.835L310.97 291.571L311.806 298.404C306.398 299.191 295.833 291.702 291.227 287.858L288.616 292.183L295.039 296.643C294.845 298.031 289.997 300.111 287.598 300.977L288.062 302.875C290.982 303.366 296.723 301.257 299.228 300.141C302.39 303.255 309.432 305.519 312.559 306.262L314.135 343.408C312.856 340.905 304.74 338.389 300.842 337.445L299.607 341.936C304.221 343.354 311.235 351.321 314.165 355.128C314.218 365.168 310.958 386.574 309.322 396.022C307.555 413.345 302.051 431.982 299.522 439.135L317.924 434.632Z" fill="#9B604E"/>
<path d="M287.596 298.923C292.933 324.041 279.317 325.527 271.842 323.131C248.045 307.602 257.005 291.062 256.869 271.411C256.735 251.759 295.441 254.63 287.346 240.597C279.249 226.564 315.927 211.582 320.724 225.756C324.562 237.094 334.464 231.957 338.934 227.971C345.586 222.451 358.289 215.494 355.88 231.831C353.471 248.169 370.577 240.134 379.431 234.075C401.178 225.75 444.196 212.886 442.296 228.031C440.397 243.176 447.569 246.426 451.393 246.157C456.265 245.632 466.539 248.656 468.655 264.953C470.77 281.251 455.905 275.08 448.208 269.958C441.507 265.458 434.721 270.701 432.165 273.884C421.123 307.281 407.432 292.727 401.966 281.275C394.078 251.176 379.091 259.515 372.584 267.447C367.463 285.782 359.928 284.779 356.8 281.986C351.246 274.537 345.491 276.635 343.308 278.615C330.992 315.527 313.235 297.43 305.896 283.768C292.719 280.053 288.205 292.323 287.596 298.923Z" fill="#19A367"/>
<g clip-path="url(#clip15)">
<path d="M290.204 434.218C282.625 437.423 284.877 442.151 286.95 444.115L349.046 430.445C348.967 424.595 344.834 424.915 342.777 425.806C338.014 429.115 337.107 427.29 337.248 425.964C334.899 419.326 330.767 420.042 328.994 421.229C326.938 423.76 324.673 423.058 323.797 422.391C320.746 415.738 317.389 414.511 316.092 414.729C311.476 414.38 306.764 422.496 304.985 426.598C303.152 428.561 301.241 428.082 300.515 427.597C295.153 422.324 292.681 424.422 292.115 426.131C291.751 432.34 290.689 434.109 290.204 434.218Z" fill="#026951"/>
</g>
</g>
<g clip-path="url(#clip16)">
<path d="M1795.31 898.785C1780.25 908.847 1788.15 923.378 1793.98 929.386C1827.92 957.083 1842.31 919.039 1845.26 896.555C1850.47 862.033 1838.92 864.867 1832.49 870.599C1830.96 828.73 1818.82 828.595 1812.94 833.761C1801.8 796.489 1789.66 801.585 1784.98 808.792C1738.29 760.158 1752.36 799.083 1765.24 824.625C1742.55 830.161 1765 851.621 1779.07 861.658C1763.03 877.618 1783.21 893.059 1795.31 898.785Z" fill="#5C9F62"/>
<path d="M1757.65 793.357C1794.91 832.202 1818.22 905.4 1825.22 937.144L1829.37 933.132C1807.38 843.612 1772.39 802.649 1757.65 793.357Z" fill="#4C8551"/>
<path d="M1879.3 986.298C1901.03 996.279 1893.77 1016.86 1887.42 1025.91C1848.94 1069.08 1822.25 1022.48 1813.72 993.784C1799.73 949.869 1815.38 951.158 1824.96 957.292C1818.21 902.398 1834.02 899.695 1842.76 905.205C1849.5 854.304 1866.39 858.421 1873.99 866.842C1924.7 793.733 1914.48 847.4 1903.03 883.372C1933.76 885.868 1908.96 918.513 1892.72 934.523C1916.96 951.99 1893.87 976.318 1879.3 986.298Z" fill="#65AD6B"/>
<path d="M1906.4 841.036C1865.93 899.423 1850.81 999.687 1848.31 1042.52L1842.07 1038.16C1852.06 916.889 1889.12 856.215 1906.4 841.036Z" fill="#4C8551"/>
<path d="M1781.42 999.439C1762.91 1014.57 1775.14 1032.66 1783.57 1039.81C1831.7 1071.89 1845.76 1020.08 1846.77 990.159C1849.22 944.139 1834.39 949.331 1826.68 957.68C1819.34 902.862 1803.36 904.228 1796.3 911.763C1776.91 864.207 1761.61 872.445 1756.39 882.509C1688.85 824.543 1712.29 873.898 1732.46 905.822C1703.36 915.979 1735.59 941.32 1755.35 952.722C1736.31 975.729 1764.8 993.453 1781.42 999.439Z" fill="#66BD6E"/>
<path d="M1718.51 865.703C1772.42 912.004 1812.37 1005.22 1825.61 1046.04L1830.55 1040.24C1790.25 925.412 1739.06 876.037 1718.51 865.703Z" fill="#4C8551"/>
</g>
<g clip-path="url(#clip17)">
<path d="M614.88 273.368C608.505 277.352 606.267 303.157 605.945 315.561C606.419 317.257 607.498 316.334 607.979 315.661C612.165 309.315 614.635 301.429 615.347 298.279C618.686 276.325 616.427 272.524 614.88 273.368Z" fill="#FFCF57"/>
<path d="M614.399 275.406C614.582 288.913 609.106 308.301 606.345 316.307L607 316.6C615.453 290.251 615.454 278.159 614.399 275.406Z" fill="#FEB46D"/>
<path d="M627.19 285.751C620.744 287.32 612.247 306.516 608.804 315.918C608.775 317.324 609.929 316.869 610.51 316.465C615.696 312.586 619.814 307.133 621.224 304.891C629.676 288.891 628.723 285.464 627.19 285.751Z" fill="#FFD773"/>
<path d="M626.26 287.196C622.966 297.559 613.35 311.103 608.954 316.581L609.437 316.956C623.365 298.782 626.456 289.544 626.26 287.196Z" fill="#FEB46D"/>
<path d="M587.967 285.494C585.906 291.783 597.793 309.081 603.994 316.944C605.177 317.708 605.398 316.49 605.36 315.786C604.787 309.35 602.308 302.991 601.14 300.617C591.955 285.039 588.531 284.044 587.967 285.494Z" fill="#FFD56C"/>
<path d="M588.709 287.043C595.807 295.285 602.286 310.559 604.638 317.166L605.213 316.954C597.061 295.59 590.814 288.112 588.709 287.043Z" fill="#FEB46D"/>
<path d="M583.357 299.418C583.397 304.443 596.153 314.036 602.527 318.204C603.564 318.469 603.428 317.539 603.23 317.04C601.257 312.544 597.93 308.562 596.514 307.134C586.121 298.129 583.412 298.238 583.357 299.418Z" fill="#FFCF57"/>
<path d="M584.268 300.354C591.379 304.579 599.748 314.017 603.044 318.208L603.407 317.917C592.356 304.496 586.043 300.617 584.268 300.354Z" fill="#FEB46D"/>
<path d="M604.213 290.031C601.043 293.408 603.438 307.874 605.032 314.684C605.555 315.517 606.056 314.81 606.241 314.353C607.787 310.106 608.103 305.346 608.068 303.497C606.873 290.918 605 289.278 604.213 290.031Z" fill="#FFD773"/>
<path d="M604.223 291.231C606.273 298.546 605.845 310.135 605.374 315.014L605.801 315.05C606.977 299.109 605.239 292.529 604.223 291.231Z" fill="#FEB46D"/>
</g>
<path d="M18.0613 871.828C36.5487 880.264 51.9254 949.289 57.3028 982.748C56.6537 987.513 53.4331 985.414 51.904 983.768C38.4047 968.134 28.9325 947.697 25.8838 939.433C8.9645 881.238 13.619 870.115 18.0613 871.828Z" fill="#FFCF57"/>
<path d="M20.0891 877.169C24.5167 913.8 46.2124 964.261 56.5069 984.913L54.863 985.95C22.6771 917.743 18.2696 885.009 20.0891 877.169Z" fill="#FEB46D"/>
<path d="M-10.3306 909.888C7.46721 911.758 37.1671 960.588 49.792 984.77C50.3829 988.563 47.1311 987.757 45.4313 986.88C30.1588 978.291 17.1684 965.047 12.5828 959.499C-15.8309 919.306 -14.5325 909.678 -10.3306 909.888Z" fill="#FFD773"/>
<path d="M-7.31906 913.458C5.25761 940.293 35.8895 973.412 49.6331 986.617L48.4794 987.813C4.63637 943.753 -6.98781 919.885 -7.31906 913.458Z" fill="#FEB46D"/>
<path d="M94.4057 894.729C102.203 910.994 76.7312 962.202 63.0206 985.773C60.1379 988.278 59.1044 985.062 58.948 983.14C58.1371 965.507 62.4469 947.382 64.7032 940.523C83.5806 894.967 92.3704 891.012 94.4057 894.729Z" fill="#FFD56C"/>
<path d="M92.9858 899.196C77.016 924.123 65.2623 967.858 61.3817 986.61L59.7677 986.249C73.7754 925.41 87.7496 902.864 92.9858 899.196Z" fill="#FEB46D"/>
<path d="M111.795 930.72C113.519 944.338 82.9182 975.009 67.402 988.641C64.7262 989.742 64.7514 987.173 65.0984 985.751C68.7338 972.852 76.1754 960.848 79.4417 956.458C103.94 928.25 111.218 927.546 111.795 930.72Z" fill="#FFCF57"/>
<path d="M109.703 933.591C92.235 947.649 73.3035 976.284 66.0211 988.844L64.9449 988.19C89.5927 947.786 105.053 934.955 109.703 933.591Z" fill="#FEB46D"/>
<path d="M52.6371 913.001C62.3393 920.974 61.2037 961.014 59.4232 980.038C58.331 982.486 56.7345 980.757 56.0727 979.587C50.3948 968.661 47.816 955.894 47.2363 950.876C45.8505 916.384 50.2594 911.254 52.6371 913.001Z" fill="#FFD773"/>
<path d="M53.0459 916.254C50.2316 936.811 55.5961 968.022 58.6301 981.057L57.5022 981.311C48.5562 938.595 50.8038 920.141 53.0459 916.254Z" fill="#FEB46D"/>
<path d="M1203.3 733.23C1168.22 749.137 1139.05 879.299 1128.84 942.392C1130.08 951.379 1136.19 947.419 1139.09 944.316C1164.7 914.835 1182.68 876.297 1188.46 860.713C1220.56 750.974 1211.73 730 1203.3 733.23Z" fill="#FFCF57"/>
<path d="M1199.46 743.3C1191.05 812.376 1149.89 907.532 1130.35 946.476L1133.47 948.43C1194.54 819.811 1202.91 758.085 1199.46 743.3Z" fill="#FEB46D"/>
<path d="M1257.17 804.998C1223.4 808.525 1167.05 900.605 1143.1 946.205C1141.97 953.359 1148.14 951.838 1151.37 950.184C1180.35 933.988 1205 909.014 1213.7 898.552C1267.61 822.759 1265.15 804.602 1257.17 804.998Z" fill="#FFD773"/>
<path d="M1251.46 811.732C1227.6 862.335 1169.47 924.788 1143.4 949.689L1145.59 951.943C1228.78 868.86 1250.83 823.851 1251.46 811.732Z" fill="#FEB46D"/>
<path d="M1058.44 776.415C1043.65 807.085 1091.98 903.649 1118 948.097C1123.47 952.82 1125.43 946.755 1125.72 943.132C1127.26 909.881 1119.08 875.701 1114.8 862.768C1078.98 776.862 1062.31 769.405 1058.44 776.415Z" fill="#FFD56C"/>
<path d="M1061.14 784.837C1091.44 831.842 1113.74 914.314 1121.11 949.674L1124.17 948.994C1097.59 834.27 1071.07 791.755 1061.14 784.837Z" fill="#FEB46D"/>
<path d="M1025.45 844.282C1022.18 869.962 1080.24 927.798 1109.68 953.506C1114.76 955.582 1114.71 950.737 1114.05 948.056C1107.15 923.731 1093.03 901.094 1086.84 892.817C1040.35 839.624 1026.54 838.297 1025.45 844.282Z" fill="#FFCF57"/>
<path d="M1029.42 849.696C1062.56 876.206 1098.48 930.203 1112.3 953.888L1114.34 952.655C1067.58 876.464 1038.24 852.269 1029.42 849.696Z" fill="#FEB46D"/>
<path d="M1137.7 810.869C1119.29 825.904 1121.44 901.409 1124.82 937.283C1126.89 941.898 1129.92 938.638 1131.18 936.432C1141.95 915.828 1146.84 891.753 1147.95 882.291C1150.57 817.249 1142.21 807.576 1137.7 810.869Z" fill="#FFD773"/>
<path d="M1136.92 817.004C1142.26 855.769 1132.08 914.623 1126.33 939.204L1128.47 939.683C1145.44 859.132 1141.18 824.334 1136.92 817.004Z" fill="#FEB46D"/>
<g clip-path="url(#clip18)">
<path d="M392.915 878.236C407.979 888.297 400.08 902.829 394.247 908.836C360.3 936.533 345.913 898.489 342.962 876.005C337.753 841.484 349.31 844.318 355.74 850.05C357.265 808.181 369.409 808.045 375.29 813.211C386.429 775.94 398.566 781.035 403.243 788.242C449.931 739.609 435.86 778.534 422.989 804.076C445.677 809.611 423.221 831.071 409.157 841.109C425.194 857.068 405.011 872.51 392.915 878.236Z" fill="#5C9F62"/>
<path d="M430.575 772.808C393.311 811.652 370.003 884.85 363.008 916.594L358.858 912.582C380.849 823.062 415.832 782.099 430.575 772.808Z" fill="#4C8551"/>
<path d="M308.929 965.749C287.194 975.729 294.46 996.315 300.809 1005.36C339.283 1048.53 365.973 1001.93 374.508 973.234C388.499 929.319 372.843 930.608 363.266 936.742C370.011 881.849 354.21 879.146 345.466 884.656C338.721 833.754 321.837 837.871 314.238 846.292C263.523 773.184 273.745 826.851 285.195 862.823C254.467 865.318 279.262 897.963 295.501 913.974C271.267 931.44 294.356 955.768 308.929 965.749Z" fill="#65AD6B"/>
<path d="M281.828 820.487C322.3 878.874 337.415 979.138 339.913 1021.97L346.158 1017.61C336.165 896.34 299.108 835.666 281.828 820.487Z" fill="#4C8551"/>
<path d="M406.803 978.889C425.313 994.023 413.083 1012.11 404.654 1019.27C356.522 1051.34 342.465 999.527 341.453 969.609C339.008 923.59 353.832 928.782 361.549 937.13C368.887 882.312 384.861 883.678 391.93 891.213C411.314 843.657 426.612 851.895 431.838 861.959C499.379 803.993 475.932 853.349 455.766 885.272C484.87 895.429 452.631 920.771 432.874 932.172C451.912 955.179 423.425 972.903 406.803 978.889Z" fill="#66BD6E"/>
<path d="M469.718 845.153C415.807 891.455 375.856 984.668 362.619 1025.49L357.679 1019.69C397.978 904.863 449.163 855.488 469.718 845.153Z" fill="#4C8551"/>
</g>
<g clip-path="url(#clip19)">
<path d="M632.597 860.473C622.263 867.37 627.682 877.332 631.683 881.45C654.97 900.437 664.84 874.357 666.864 858.944C670.437 835.279 662.509 837.222 658.098 841.151C657.052 812.45 648.722 812.357 644.687 815.898C637.046 790.348 628.72 793.841 625.512 798.782C593.484 765.443 603.137 792.126 611.966 809.636C596.402 813.43 611.807 828.141 621.455 835.022C610.453 845.962 624.299 856.548 632.597 860.473Z" fill="#5C9F62"/>
<path d="M606.762 788.201C632.325 814.829 648.314 865.008 653.113 886.768L655.959 884.018C640.874 822.651 616.876 794.571 606.762 788.201Z" fill="#4C8551"/>
<path d="M690.21 920.465C705.12 927.306 700.136 941.418 695.78 947.618C669.388 977.209 651.079 945.266 645.224 925.596C635.626 895.492 646.366 896.375 652.936 900.58C648.308 862.95 659.148 861.097 665.146 864.874C669.773 829.981 681.356 832.803 686.569 838.576C721.358 788.459 714.346 825.248 706.491 849.908C727.571 851.618 710.562 873.997 699.422 884.972C716.046 896.945 700.207 913.623 690.21 920.465Z" fill="#65AD6B"/>
<path d="M708.801 820.885C681.038 860.91 670.669 929.643 668.956 959.006L664.671 956.013C671.526 872.884 696.948 831.291 708.801 820.885Z" fill="#4C8551"/>
<path d="M623.07 929.472C610.372 939.847 618.762 952.247 624.544 957.151C657.562 979.139 667.205 943.62 667.899 923.111C669.576 891.564 659.408 895.123 654.113 900.846C649.079 863.268 638.122 864.204 633.272 869.369C619.975 836.769 609.481 842.417 605.896 849.315C559.564 809.579 575.648 843.413 589.482 865.297C569.516 872.259 591.632 889.632 605.185 897.447C592.126 913.219 611.667 925.369 623.07 929.472Z" fill="#66BD6E"/>
<path d="M579.911 837.795C616.893 869.535 644.299 933.434 653.379 961.416L656.768 957.441C629.123 878.726 594.011 844.879 579.911 837.795Z" fill="#4C8551"/>
</g>
<g clip-path="url(#clip20)">
<path d="M958.879 896.652C951.019 901.914 955.141 909.513 958.184 912.655C975.895 927.14 983.402 907.244 984.941 895.485C987.659 877.432 981.629 878.914 978.275 881.911C977.479 860.015 971.143 859.944 968.075 862.646C962.263 843.154 955.931 845.819 953.491 849.588C929.132 824.154 936.473 844.511 943.188 857.868C931.351 860.763 943.067 871.986 950.405 877.236C942.038 885.582 952.568 893.657 958.879 896.652Z" fill="#5C9F62"/>
<path d="M939.23 841.516C958.672 861.831 970.833 900.111 974.483 916.712L976.648 914.614C965.174 867.798 946.922 846.375 939.23 841.516Z" fill="#4C8551"/>
<path d="M1002.7 942.418C1014.04 947.638 1010.25 958.403 1006.93 963.133C986.861 985.708 972.936 961.339 968.483 946.333C961.183 923.367 969.352 924.041 974.348 927.249C970.829 898.541 979.073 897.128 983.635 900.009C987.154 873.389 995.963 875.542 999.928 879.946C1026.39 841.713 1021.05 869.779 1015.08 888.591C1031.11 889.896 1018.18 906.969 1009.7 915.342C1022.35 924.476 1010.3 937.199 1002.7 942.418Z" fill="#65AD6B"/>
<path d="M1016.84 866.451C995.722 896.985 987.836 949.42 986.532 971.821L983.274 969.538C988.487 906.12 1007.82 874.389 1016.84 866.451Z" fill="#4C8551"/>
<path d="M951.633 949.29C941.976 957.205 948.357 966.665 952.754 970.406C977.867 987.18 985.201 960.083 985.728 944.437C987.004 920.37 979.27 923.086 975.244 927.452C971.415 898.784 963.081 899.498 959.393 903.439C949.279 878.568 941.298 882.877 938.571 888.14C903.333 857.825 915.566 883.637 926.087 900.332C910.902 905.643 927.723 918.896 938.031 924.859C928.098 936.891 942.961 946.16 951.633 949.29Z" fill="#66BD6E"/>
<path d="M918.808 879.351C946.935 903.565 967.779 952.312 974.685 973.66L977.263 970.627C956.237 910.577 929.532 884.755 918.808 879.351Z" fill="#4C8551"/>
</g>
<g clip-path="url(#clip21)">
<path d="M1504.35 906.151C1510.9 910.524 1507.46 916.84 1504.93 919.451C1490.17 931.489 1483.91 914.954 1482.63 905.181C1480.37 890.177 1485.39 891.409 1488.19 893.9C1488.85 875.703 1494.13 875.644 1496.69 877.889C1501.53 861.69 1506.81 863.905 1508.84 867.037C1529.14 845.9 1523.02 862.818 1517.43 873.919C1527.29 876.325 1517.53 885.652 1511.41 890.014C1518.38 896.951 1509.61 903.662 1504.35 906.151Z" fill="#5C9F62"/>
<path d="M1520.72 860.329C1504.52 877.212 1494.39 909.026 1491.35 922.823L1489.54 921.079C1499.1 882.171 1514.31 864.367 1520.72 860.329Z" fill="#4C8551"/>
<path d="M1467.83 944.187C1458.38 948.525 1461.54 957.471 1464.3 961.402C1481.03 980.164 1492.64 959.911 1496.35 947.44C1502.43 928.353 1495.62 928.914 1491.46 931.58C1494.39 907.721 1487.52 906.546 1483.72 908.941C1480.79 886.818 1473.45 888.607 1470.14 892.267C1448.09 860.492 1452.54 883.818 1457.51 899.452C1444.15 900.536 1454.94 914.725 1462 921.684C1451.46 929.275 1461.5 939.849 1467.83 944.187Z" fill="#65AD6B"/>
<path d="M1456.05 881.051C1473.65 906.428 1480.22 950.006 1481.3 968.622L1484.02 966.725C1479.68 914.019 1463.56 887.649 1456.05 881.051Z" fill="#4C8551"/>
<path d="M1510.39 949.898C1518.44 956.476 1513.12 964.337 1509.45 967.446C1488.53 981.387 1482.41 958.867 1481.97 945.864C1480.91 925.863 1487.36 928.12 1490.71 931.748C1493.9 907.923 1500.85 908.516 1503.92 911.791C1512.35 891.122 1519 894.703 1521.27 899.077C1550.64 873.883 1540.44 895.334 1531.68 909.209C1544.33 913.624 1530.31 924.638 1521.72 929.593C1530 939.593 1517.61 947.296 1510.39 949.898Z" fill="#66BD6E"/>
<path d="M1537.74 891.772C1514.3 911.896 1496.93 952.41 1491.18 970.151L1489.03 967.631C1506.55 917.724 1528.8 896.264 1537.74 891.772Z" fill="#4C8551"/>
</g>
<path d="M1645.12 866.691C1626.63 875.127 1611.26 944.152 1605.88 977.61C1606.53 982.376 1609.75 980.276 1611.28 978.631C1624.78 962.997 1634.25 942.56 1637.3 934.296C1654.22 876.101 1649.56 864.978 1645.12 866.691Z" fill="#FFCF57"/>
<path d="M1643.09 872.031C1638.67 908.662 1616.97 959.124 1606.68 979.776L1608.32 980.812C1640.51 912.605 1644.91 879.872 1643.09 872.031Z" fill="#FEB46D"/>
<path d="M1673.51 904.75C1655.72 906.62 1626.02 955.451 1613.39 979.632C1612.8 983.426 1616.05 982.62 1617.75 981.742C1633.02 973.154 1646.01 959.91 1650.6 954.362C1679.01 914.168 1677.71 904.54 1673.51 904.75Z" fill="#FFD773"/>
<path d="M1670.5 908.321C1657.92 935.156 1627.29 968.275 1613.55 981.48L1614.7 982.675C1658.55 938.616 1670.17 914.748 1670.5 908.321Z" fill="#FEB46D"/>
<path d="M1568.78 889.592C1560.98 905.857 1586.45 957.065 1600.16 980.636C1603.04 983.14 1604.08 979.924 1604.23 978.003C1605.05 960.369 1600.74 942.244 1598.48 935.386C1579.6 889.829 1570.81 885.875 1568.78 889.592Z" fill="#FFD56C"/>
<path d="M1570.2 894.059C1586.17 918.985 1597.92 962.72 1601.8 981.472L1603.41 981.111C1589.41 920.273 1575.43 897.727 1570.2 894.059Z" fill="#FEB46D"/>
<path d="M1551.39 925.582C1549.66 939.201 1580.26 969.871 1595.78 983.504C1598.46 984.605 1598.43 982.036 1598.08 980.614C1594.45 967.715 1587.01 955.71 1583.74 951.32C1559.24 923.112 1551.96 922.408 1551.39 925.582Z" fill="#FFCF57"/>
<path d="M1553.48 928.453C1570.95 942.511 1589.88 971.146 1597.16 983.706L1598.24 983.053C1573.59 942.648 1558.13 929.818 1553.48 928.453Z" fill="#FEB46D"/>
<path d="M1610.55 907.863C1600.84 915.836 1601.98 955.877 1603.76 974.901C1604.85 977.348 1606.45 975.62 1607.11 974.45C1612.79 963.523 1615.37 950.756 1615.95 945.738C1617.33 911.247 1612.92 906.117 1610.55 907.863Z" fill="#FFD773"/>
<path d="M1610.14 911.117C1612.95 931.674 1607.59 962.884 1604.55 975.92L1605.68 976.174C1614.63 933.457 1612.38 915.004 1610.14 911.117Z" fill="#FEB46D"/>
<g clip-path="url(#clip22)">
<path d="M-52.5784 986.247C-108.409 996.52 -100.329 1032.11 -89.3093 1048.62L349.26 1050.09C357.487 1010.17 329.18 1006.06 313.996 1008.99C276.973 1024.26 273.593 1010.46 276.532 1001.66C270.655 952.933 241.76 951.514 228.047 956.895C210.416 970.984 196.213 962.765 191.316 956.895C180.737 906.997 159.972 893.544 150.912 893.055C120.351 883.662 76.47 931.701 58.3493 956.895C43.0692 967.461 30.9235 961.298 26.7606 956.895C-1.44871 912.867 -21.2343 923.385 -27.6013 934.147C-39.355 975.827 -49.1501 986.247 -52.5784 986.247Z" fill="#026951"/>
</g>
<g clip-path="url(#clip23)">
<path d="M1104.1 988.734C1157.75 998.607 1149.98 1032.81 1139.39 1048.68L717.925 1050.09C710.019 1011.72 737.222 1007.77 751.815 1010.6C787.394 1025.26 790.642 1012.01 787.818 1003.54C793.466 956.718 821.234 955.354 834.412 960.526C851.356 974.066 865.005 966.167 869.711 960.526C879.877 912.572 899.833 899.643 908.54 899.173C937.909 890.146 980.079 936.314 997.493 960.526C1012.18 970.681 1023.85 964.757 1027.85 960.526C1054.96 918.213 1073.97 928.321 1080.09 938.664C1091.39 978.72 1100.8 988.734 1104.1 988.734Z" fill="#026951"/>
</g>
<g clip-path="url(#clip24)">
<path d="M1534.17 992.447C1481.8 1002.05 1489.38 1035.33 1499.71 1050.77L1911.12 1052.14C1918.84 1014.82 1892.29 1010.97 1878.04 1013.72C1843.31 1027.99 1840.14 1015.09 1842.9 1006.86C1837.39 961.296 1810.28 959.97 1797.42 965.001C1780.88 978.175 1767.56 970.49 1762.96 965.001C1753.04 918.343 1733.56 905.764 1725.06 905.307C1696.39 896.524 1655.23 941.444 1638.23 965.001C1623.89 974.882 1612.5 969.118 1608.6 965.001C1582.13 923.833 1563.57 933.667 1557.6 943.731C1546.57 982.704 1537.39 992.447 1534.17 992.447Z" fill="#026951"/>
</g>
<g clip-path="url(#clip25)">
<path d="M1039.3 974.838C972.33 987.112 982.024 1029.63 995.242 1049.36L1521.32 1051.11C1531.19 1003.42 1497.24 998.51 1479.02 1002.02C1434.61 1020.25 1430.56 1003.77 1434.08 993.249C1427.03 935.034 1392.37 933.339 1375.92 939.768C1354.77 956.602 1337.74 946.782 1331.86 939.768C1319.17 880.15 1294.26 864.076 1283.4 863.492C1246.74 852.269 1194.1 909.667 1172.36 939.768C1154.04 952.393 1139.47 945.029 1134.47 939.768C1100.63 887.164 1076.9 899.73 1069.26 912.589C1055.16 962.388 1043.41 974.838 1039.3 974.838Z" fill="#026951"/>
</g>
<g clip-path="url(#clip26)">
<path d="M1598.12 981.272C1658.44 992.346 1649.71 1030.71 1637.8 1048.5L1164.03 1050.09C1155.14 1007.06 1185.72 1002.63 1202.12 1005.79C1242.12 1022.24 1245.77 1007.37 1242.59 997.883C1248.94 945.362 1280.16 943.833 1294.97 949.633C1314.02 964.82 1329.36 955.961 1334.65 949.633C1346.08 895.847 1368.51 881.346 1378.3 880.819C1411.31 870.694 1458.72 922.476 1478.29 949.633C1494.8 961.023 1507.92 954.379 1512.42 949.633C1542.89 902.175 1564.26 913.512 1571.14 925.113C1583.84 970.04 1594.42 981.272 1598.12 981.272Z" fill="#026951"/>
</g>
<g clip-path="url(#clip27)">
<path d="M1236.45 981.272C1296.76 992.346 1288.03 1030.71 1276.13 1048.5L802.354 1050.09C793.467 1007.06 824.046 1002.63 840.449 1005.79C880.445 1022.24 884.095 1007.37 880.921 997.883C887.27 945.362 918.484 943.833 933.298 949.633C952.344 964.82 967.687 955.961 972.978 949.633C984.405 895.847 1006.84 881.346 1016.63 880.819C1049.64 870.694 1097.04 922.476 1116.62 949.633C1133.12 961.023 1146.25 954.379 1150.74 949.633C1181.22 902.175 1202.59 913.512 1209.47 925.113C1222.17 970.04 1232.75 981.272 1236.45 981.272Z" fill="#026951"/>
</g>
<g clip-path="url(#clip28)">
<path d="M531.105 948.718C462.341 961.393 472.294 1005.3 485.866 1025.67L1026.03 1027.48C1036.16 978.232 1001.3 973.162 982.597 976.783C936.997 995.615 932.835 978.594 936.454 967.73C929.216 907.617 893.628 905.866 876.738 912.505C855.023 929.888 837.53 919.748 831.498 912.505C818.469 850.943 792.893 834.345 781.734 833.741C744.095 822.153 690.048 881.422 667.73 912.505C648.91 925.542 633.951 917.937 628.823 912.505C594.079 858.185 569.71 871.162 561.869 884.44C547.392 935.862 535.328 948.718 531.105 948.718Z" fill="#026951"/>
</g>
<g clip-path="url(#clip29)">
<path d="M307.035 984.372C248.642 995.112 257.094 1032.32 268.619 1049.58L727.306 1051.11C735.91 1009.38 706.305 1005.09 690.424 1008.15C651.703 1024.11 648.168 1009.69 651.242 1000.48C645.095 949.544 614.875 948.061 600.533 953.686C582.093 968.416 567.239 959.824 562.117 953.686C551.053 901.52 529.335 887.456 519.859 886.944C487.897 877.125 442.003 927.348 423.051 953.686C407.07 964.733 394.367 958.289 390.013 953.686C360.51 907.657 339.816 918.653 333.157 929.905C320.865 973.479 310.62 984.372 307.035 984.372Z" fill="#026951"/>
</g>
<g clip-path="url(#clip30)">
<path d="M479.831 964.545C548.339 977.153 538.423 1020.83 524.902 1041.09L-13.2512 1042.89C-23.346 993.903 11.3881 988.86 30.0206 992.462C75.4503 1011.19 79.5967 994.264 75.9912 983.457C83.2027 923.66 118.659 921.918 135.485 928.522C157.12 945.813 174.547 935.727 180.557 928.522C193.537 867.284 219.018 850.774 230.135 850.173C267.635 838.646 321.48 897.603 343.715 928.522C362.465 941.49 377.368 933.926 382.477 928.522C417.091 874.489 441.369 887.397 449.182 900.605C463.605 951.757 475.624 964.545 479.831 964.545Z" fill="#026951"/>
</g>
<g clip-path="url(#clip31)">
<path d="M2010.33 992.447C2062.71 1002.05 2055.13 1035.33 2044.79 1050.77L1633.38 1052.14C1625.66 1014.82 1652.21 1010.97 1666.46 1013.72C1701.19 1027.99 1704.36 1015.09 1701.6 1006.86C1707.12 961.296 1734.22 959.97 1747.09 965.001C1763.62 978.175 1776.95 970.49 1781.54 965.001C1791.46 918.343 1810.94 905.764 1819.44 905.307C1848.11 896.524 1889.28 941.444 1906.27 965.001C1920.61 974.882 1932 969.118 1935.91 965.001C1962.37 923.833 1980.93 933.667 1986.9 943.731C1997.93 982.704 2007.12 992.447 2010.33 992.447Z" fill="#026951"/>
</g>
<defs>
<clipPath id="clip0">
<rect width="1216.14" height="955.703" fill="white" transform="translate(-642.304 168.021) rotate(-3.80382)"/>
</clipPath>
<clipPath id="clip1">
<rect width="151.04" height="140.765" fill="white" transform="translate(910.707 236.321)"/>
</clipPath>
<clipPath id="clip2">
<rect width="79.1161" height="73.9787" fill="white" transform="translate(711.515 225.36) rotate(-4.77792)"/>
</clipPath>
<clipPath id="clip3">
<rect width="99.1978" height="92.7563" fill="white" transform="translate(1161.52 221.073) rotate(6.112)"/>
</clipPath>
<clipPath id="clip4">
<rect width="192.723" height="180.208" fill="white" transform="translate(1288.11 319.525) rotate(8.22051)"/>
</clipPath>
<clipPath id="clip5">
<rect width="188.917" height="176.905" fill="white" transform="translate(504.852 363.009) rotate(-7.2801)"/>
</clipPath>
<clipPath id="clip6">
<rect width="230.464" height="80.3428" fill="white" transform="matrix(-0.928057 -0.372438 -0.372526 0.928022 1902.88 953.129)"/>
</clipPath>
<clipPath id="clip7">
<rect width="43.9788" height="15.3347" fill="white" transform="translate(586.023 309.948) rotate(-6.24762)"/>
</clipPath>
<clipPath id="clip8">
<rect width="1900.84" height="634.984" fill="white" transform="translate(11.6604 408.938)"/>
</clipPath>
<clipPath id="clip9">
<rect width="308.245" height="668.891" fill="white" transform="translate(838.784 215.771)"/>
</clipPath>
<clipPath id="clip10">
<rect width="353.454" height="399.691" fill="white" transform="translate(1315.54 576.418)"/>
</clipPath>
<clipPath id="clip11">
<rect width="189.057" height="413.048" fill="white" transform="translate(657.947 346.261)"/>
</clipPath>
<clipPath id="clip12">
<rect width="219.881" height="427.433" fill="white" transform="translate(1129.56 382.223)"/>
</clipPath>
<clipPath id="clip13">
<rect width="79.1161" height="73.9787" fill="white" transform="translate(436.011 248.609) rotate(-10.4448)"/>
</clipPath>
<clipPath id="clip14">
<rect width="259.627" height="256.211" fill="white" transform="matrix(-1 0 0 1 499.497 185.359)"/>
</clipPath>
<clipPath id="clip15">
<rect width="64.9475" height="22.7014" fill="white" transform="matrix(0.9759 -0.218219 0.217103 0.976149 280.944 422.412)"/>
</clipPath>
<clipPath id="clip16">
<rect width="212.689" height="290.777" fill="white" transform="matrix(-1 -9.62938e-09 -9.62938e-09 1 1917.64 773.694)"/>
</clipPath>
<clipPath id="clip17">
<rect width="59.4239" height="52.6541" fill="white" transform="translate(571.383 277.961) rotate(-7.75771)"/>
</clipPath>
<clipPath id="clip18">
<rect width="212.689" height="290.777" fill="white" transform="translate(270.586 753.144)"/>
</clipPath>
<clipPath id="clip19">
<rect width="145.902" height="199.332" fill="white" transform="matrix(-1 0 0 1 716.513 774.722)"/>
</clipPath>
<clipPath id="clip20">
<rect width="110.968" height="152.067" fill="white" transform="matrix(-1 0 0 1 1022.7 831.233)"/>
</clipPath>
<clipPath id="clip21">
<rect width="92.4734" height="126.38" fill="white" transform="translate(1451.16 851.783)"/>
</clipPath>
<clipPath id="clip22">
<rect width="447.982" height="158.232" fill="white" transform="translate(-97.2527 891.855)"/>
</clipPath>
<clipPath id="clip23">
<rect width="430.515" height="152.067" fill="white" transform="matrix(-1 0 0 1 1147.03 898.019)"/>
</clipPath>
<clipPath id="clip24">
<rect width="420.24" height="147.957" fill="white" transform="translate(1492.26 904.184)"/>
</clipPath>
<clipPath id="clip25">
<rect width="537.373" height="189.057" fill="white" transform="translate(985.714 862.057)"/>
</clipPath>
<clipPath id="clip26">
<rect width="483.944" height="170.562" fill="white" transform="matrix(-1 0 0 1 1646.38 879.525)"/>
</clipPath>
<clipPath id="clip27">
<rect width="483.944" height="170.562" fill="white" transform="matrix(-1 0 0 1 1284.71 879.525)"/>
</clipPath>
<clipPath id="clip28">
<rect width="551.758" height="195.222" fill="white" transform="translate(476.082 832.261)"/>
</clipPath>
<clipPath id="clip29">
<rect width="468.532" height="165.425" fill="white" transform="translate(260.311 885.69)"/>
</clipPath>
<clipPath id="clip30">
<rect width="549.703" height="194.194" fill="white" transform="matrix(-1 0 0 1 534.649 848.7)"/>
</clipPath>
<clipPath id="clip31">
<rect width="420.24" height="147.957" fill="white" transform="matrix(-1 -5.07603e-09 -5.07603e-09 1 2052.24 904.184)"/>
</clipPath>
</defs>
</svg>
